<?xml version="1.0" standalone="no"?>
<!DOCTYPE svg PUBLIC "-//W3C//DTD SVG 20010904//EN"
 "http://www.w3.org/TR/2001/REC-SVG-20010904/DTD/svg10.dtd">
<svg version="1.0" xmlns="http://www.w3.org/2000/svg"
 width="1280.000000pt" height="776.000000pt" viewBox="0 0 1280.000000 776.000000"
 preserveAspectRatio="xMidYMid meet">
<metadata>
Created by potrace 1.15, written by Peter Selinger 2001-2017
</metadata>
<g transform="translate(0.000000,776.000000) scale(0.100000,-0.100000)"
fill="#000000" stroke="none">
<path d="M0 4395 l0 -3365 23 -5 c12 -3 345 -62 741 -130 l718 -125 869 0 869
0 0 54 c0 124 46 281 121 411 75 132 231 280 368 350 163 83 375 113 562 80
198 -35 363 -125 503 -276 142 -153 236 -376 236 -560 l0 -59 2829 0 2829 0 7
73 c38 404 304 717 692 814 103 26 322 23 428 -6 372 -100 642 -423 672 -803
l6 -78 58 0 c70 0 71 2 124 138 129 335 183 935 111 1242 -51 221 -169 453
-335 660 -71 89 -251 269 -336 338 -38 30 -425 410 -860 842 -434 433 -826
818 -870 856 -211 183 -424 318 -555 353 -34 9 -253 11 -872 9 l-828 -3 -32
-33 -33 -32 -3 -725 -2 -725 -55 0 -55 0 0 2035 0 2035 -3965 0 -3965 0 0
-3365z m9653 460 c89 -16 198 -64 272 -120 125 -95 727 -657 946 -883 173
-178 219 -239 219 -288 0 -40 -38 -87 -91 -114 -37 -20 -67 -20 -1218 -20
-726 0 -1189 4 -1205 10 -43 16 -103 78 -125 130 -21 49 -21 56 -19 612 l3
563 23 33 c26 35 80 67 139 81 21 5 250 9 508 10 361 0 488 -3 548 -14z
m-1613 -1955 l0 -690 -55 0 -55 0 0 683 c0 376 3 687 7 690 3 4 28 7 55 7 l48
0 0 -690z"/>
<path d="M3990 1554 c-289 -52 -522 -251 -615 -524 -96 -283 -19 -599 197
-807 106 -101 214 -161 368 -204 59 -17 291 -17 350 0 164 46 287 118 393 230
267 284 284 712 40 1022 -96 123 -226 209 -403 266 -44 14 -279 26 -330 17z
m272 -437 c75 -34 151 -106 185 -176 25 -50 28 -67 28 -161 0 -101 -1 -108
-34 -168 -82 -151 -248 -228 -406 -189 -115 28 -196 93 -253 200 -24 47 -27
62 -27 157 0 125 17 171 92 251 79 84 167 121 283 116 55 -3 91 -10 132 -30z"/>
<path d="M11404 1546 c-240 -55 -450 -226 -547 -448 -48 -110 -61 -176 -61
-313 -1 -155 14 -219 78 -350 100 -201 272 -343 492 -407 66 -19 102 -23 214
-22 124 0 142 3 226 32 126 43 225 103 314 192 154 153 230 336 230 553 -1
217 -72 388 -230 548 -96 97 -187 153 -315 195 -99 33 -301 43 -401 20z m318
-428 c79 -36 142 -98 181 -177 29 -60 32 -73 32 -161 -1 -83 -4 -102 -28 -152
-53 -109 -147 -181 -270 -208 -156 -35 -332 60 -405 218 -21 47 -26 72 -26
142 -1 72 3 94 27 145 15 32 39 74 53 93 34 44 123 102 182 119 73 20 186 12
254 -19z"/>
</g>
</svg>
