<?xml version="1.0" standalone="no"?>
<!DOCTYPE svg PUBLIC "-//W3C//DTD SVG 20010904//EN"
 "http://www.w3.org/TR/2001/REC-SVG-20010904/DTD/svg10.dtd">
<svg version="1.0" xmlns="http://www.w3.org/2000/svg"
 width="980.000000pt" height="980.000000pt" viewBox="0 0 980.000000 980.000000"
 preserveAspectRatio="xMidYMid meet">

<g transform="translate(0.000000,980.000000) scale(0.100000,-0.100000)"
fill="#193d78" stroke="none">
<path d="M4978 9693 l-3 -108 -75 0 -75 0 -3 103 -3 102 -112 0 c-111 -1 -612
-52 -624 -64 -4 -3 1 -49 10 -102 10 -52 15 -99 12 -104 -3 -5 -24 -14 -45
-20 -69 -19 -79 -6 -113 140 -12 52 -14 55 -42 53 -76 -6 -719 -193 -742 -216
-10 -9 -6 -31 17 -97 17 -46 30 -92 30 -102 0 -22 -53 -50 -88 -46 -28 3 -35
14 -76 111 -21 48 -29 57 -50 57 -30 0 -473 -221 -627 -312 l-106 -63 59 -89
59 -89 -20 -21 c-21 -22 -89 -62 -94 -55 -2 2 -25 37 -52 77 -26 41 -54 76
-62 79 -9 3 -29 -2 -47 -12 -86 -51 -385 -292 -536 -433 l-75 -70 56 -59 c79
-81 84 -93 56 -134 -16 -25 -31 -35 -54 -37 -27 -3 -42 6 -101 62 l-69 65
-100 -112 c-171 -192 -373 -443 -373 -464 0 -5 33 -32 73 -60 104 -73 103 -71
62 -129 -20 -27 -40 -48 -46 -46 -6 1 -46 28 -90 58 -44 31 -81 55 -83 53 -27
-33 -121 -186 -185 -302 -82 -147 -216 -416 -209 -421 1 -1 39 -18 82 -37 43
-19 84 -42 90 -51 15 -24 -12 -102 -37 -106 -10 -2 -47 8 -83 22 -35 14 -77
26 -93 26 -28 0 -31 -4 -74 -122 -78 -212 -173 -535 -178 -603 -5 -68 7 -78
104 -90 84 -11 93 -20 77 -84 -7 -29 -18 -55 -25 -57 -7 -3 -52 2 -101 10
-109 19 -102 20 -108 -1 -20 -62 -95 -797 -83 -809 2 -3 53 -8 113 -12 l109
-7 0 -65 0 -65 -109 -7 c-60 -4 -111 -9 -113 -11 -5 -5 14 -254 33 -442 17
-169 39 -281 57 -288 7 -3 52 0 100 6 100 12 106 10 114 -50 7 -54 -22 -76
-121 -92 -42 -7 -78 -16 -81 -21 -8 -13 55 -258 131 -508 70 -230 87 -274 107
-267 102 33 179 53 190 49 19 -7 37 -48 37 -85 0 -26 -6 -33 -48 -50 -26 -11
-64 -27 -84 -36 -27 -11 -38 -22 -38 -37 0 -38 197 -433 322 -644 l55 -93 83
56 c45 31 90 55 99 53 9 -2 31 -25 49 -52 l33 -49 -78 -51 c-103 -68 -105 -73
-63 -133 102 -146 367 -469 448 -547 l40 -39 34 21 c18 12 55 44 83 71 l49 51
48 -47 48 -47 -80 -81 -80 -81 112 -100 c236 -210 457 -382 476 -370 6 3 36
43 67 87 l56 80 27 -17 c40 -25 72 -56 72 -69 0 -6 -20 -40 -45 -75 -25 -35
-45 -72 -45 -82 0 -23 46 -56 244 -175 141 -84 380 -207 442 -227 18 -6 24 2
49 61 50 119 68 132 135 98 38 -19 39 -45 5 -125 -41 -96 -38 -104 53 -138
162 -63 567 -183 665 -197 29 -5 47 -3 52 5 4 6 13 48 21 93 8 45 19 86 24 91
6 6 29 4 62 -5 53 -14 53 -14 52 -54 0 -22 -4 -70 -9 -107 l-8 -66 54 -11
c118 -24 425 -58 697 -76 l92 -7 0 85 c0 46 3 99 6 116 6 29 10 31 48 31 22 0
47 -4 54 -9 19 -11 31 -74 32 -153 0 -38 3 -68 8 -68 4 0 97 7 207 15 233 17
411 39 475 58 l45 13 -4 65 c-2 35 -4 82 -5 104 l-1 40 49 9 c44 9 50 8 66
-12 10 -12 23 -55 29 -99 6 -43 15 -81 20 -86 22 -22 765 196 777 227 3 7 -7
47 -22 87 -42 119 -43 113 17 139 l53 22 16 -23 c8 -12 28 -54 44 -92 29 -69
29 -69 63 -64 59 10 628 304 686 355 26 23 21 42 -29 120 -51 80 -52 79 18
129 l43 31 54 -84 c30 -46 59 -84 64 -84 5 0 27 15 50 33 302 243 483 390 534
434 73 63 73 63 -9 149 -53 57 -59 81 -25 111 49 44 62 40 149 -45 l58 -56 36
34 c120 117 434 507 434 541 0 9 -31 37 -70 63 -39 26 -73 53 -77 62 -3 8 7
32 21 54 37 56 55 56 135 -1 30 -21 62 -39 73 -39 22 0 59 49 145 195 69 114
246 454 257 491 6 19 -4 25 -84 59 -50 21 -92 41 -95 44 -3 7 31 110 40 119 2
3 40 -9 84 -27 125 -49 122 -50 170 82 82 224 177 542 182 612 5 68 -7 78
-105 90 -78 10 -87 21 -72 87 13 60 4 57 147 43 70 -7 77 -6 82 11 21 69 87
686 87 811 0 9 -31 13 -107 15 l-108 3 0 65 0 65 107 3 108 3 -6 77 c-26 363
-53 593 -75 634 -10 19 -18 20 -83 15 -39 -4 -81 -9 -93 -13 -25 -7 -37 11
-46 68 -8 54 7 66 103 84 47 9 89 19 93 23 18 17 -194 758 -222 775 -4 3 -47
-9 -96 -25 -50 -16 -95 -29 -101 -29 -10 0 -54 86 -54 105 0 3 43 26 95 50 52
25 95 50 95 56 0 31 -302 609 -371 709 l-16 24 -77 -47 c-42 -26 -85 -47 -96
-47 -11 0 -34 20 -55 47 l-36 47 33 19 c90 54 138 91 138 107 0 38 -273 386
-444 566 l-74 79 -59 -56 c-81 -79 -93 -84 -134 -56 -25 16 -35 31 -37 54 -3
27 6 42 62 101 l66 69 -118 105 c-190 169 -445 372 -462 366 -5 -2 -33 -37
-62 -78 -30 -41 -61 -76 -69 -78 -8 -1 -36 12 -62 31 l-47 33 61 88 c34 48 60
88 58 90 -90 73 -582 347 -692 385 -27 10 -28 9 -66 -72 -50 -109 -54 -112
-119 -82 l-52 24 21 53 c12 29 25 63 30 76 5 13 9 36 9 52 0 27 -5 30 -122 73
-212 78 -535 173 -603 178 -68 5 -78 -7 -90 -104 -11 -84 -20 -93 -84 -77 -29
7 -55 18 -57 24 -2 6 2 48 11 91 19 101 19 112 -2 119 -10 3 -106 17 -213 30
-177 23 -273 32 -517 51 l-82 6 -3 -108z m342 -1798 c962 -132 1828 -750 2274
-1624 133 -262 245 -588 285 -831 48 -302 49 -784 0 -1070 -39 -231 -141 -547
-253 -785 -275 -582 -871 -1166 -1465 -1436 -292 -132 -624 -226 -882 -249
-147 -13 -611 -13 -758 0 -462 41 -1068 290 -1454 597 -204 162 -483 448 -626
642 -223 302 -414 733 -495 1116 -49 236 -60 350 -60 645 0 295 11 409 60 645
89 421 302 878 557 1195 167 208 443 476 637 620 395 291 971 507 1470 550
150 13 572 4 710 -15z"/>
</g>
</svg>
