<?xml version="1.0" standalone="no"?>
<!DOCTYPE svg PUBLIC "-//W3C//DTD SVG 20010904//EN"
 "http://www.w3.org/TR/2001/REC-SVG-20010904/DTD/svg10.dtd">
<svg version="1.0" xmlns="http://www.w3.org/2000/svg"
 width="1280.000000pt" height="720.000000pt" viewBox="0 0 1280.000000 720.000000"
 preserveAspectRatio="xMidYMid meet">
<g transform="translate(0.000000,720.000000) scale(0.100000,-0.100000)"
fill="#000000" stroke="none">
<path d="M5345 5494 c-313 -14 -605 -39 -636 -55 -37 -19 -120 -306 -164 -563
-27 -158 -48 -419 -40 -481 3 -22 2 -45 -2 -52 -6 -8 -415 -9 -1673 -1 -916 6
-1807 7 -1980 3 l-315 -7 0 -42 c0 -22 -17 -109 -38 -192 -81 -330 -93 -564
-54 -1084 2 -24 0 -25 -100 -37 -129 -15 -140 -21 -149 -79 -9 -59 1 -209 16
-250 23 -64 245 -140 380 -131 57 4 71 1 116 -24 45 -25 92 -35 442 -89 215
-33 421 -70 458 -82 116 -38 136 -71 153 -255 10 -112 23 -146 63 -176 26 -20
27 -20 60 0 33 19 41 32 75 107 24 53 39 55 47 9 23 -133 116 -376 180 -469
50 -74 219 -217 308 -261 102 -50 272 -109 355 -122 63 -10 179 -2 278 18 28
6 82 17 120 25 40 8 117 37 178 67 96 47 118 63 220 163 113 110 123 124 214
299 30 58 57 201 61 331 l3 109 73 -7 c177 -16 340 -25 444 -26 l112 0 0 -38
c0 -21 6 -47 14 -58 14 -18 34 -19 378 -26 1339 -24 1532 -28 3867 -69 360 -6
674 -9 699 -5 39 5 53 1 119 -35 41 -23 93 -60 117 -84 60 -61 95 -66 180 -25
37 17 73 30 82 28 8 -2 30 -41 50 -88 19 -46 48 -100 64 -120 16 -19 50 -65
74 -101 90 -133 219 -220 471 -315 95 -35 107 -37 245 -42 205 -6 285 10 446
91 110 56 135 73 243 175 111 105 124 120 176 220 82 157 116 270 122 407 2
60 4 129 4 153 0 23 4 42 8 42 5 0 35 -14 67 -31 57 -30 62 -31 154 -26 116 6
241 44 302 90 36 28 47 45 71 112 79 223 127 492 108 607 -19 112 -48 143
-153 162 -34 6 -38 10 -51 59 -9 29 -22 89 -31 135 -36 182 -108 332 -233 490
-65 81 -1277 283 -1930 321 l-163 10 -88 75 c-345 292 -1014 724 -1392 898
-289 134 -1257 278 -2205 328 -199 11 -882 20 -1020 14z m860 -234 c256 -14
352 -22 364 -29 24 -15 63 -487 65 -791 l1 -205 -185 3 c-254 3 -564 18 -890
42 -322 24 -344 30 -380 105 -23 47 -23 48 -17 414 3 224 10 380 17 403 14 49
37 60 140 69 100 9 641 2 885 -11z m1130 -79 c43 -9 36 -15 -28 -26 -91 -15
-158 -125 -160 -266 -2 -67 1 -82 31 -137 17 -34 32 -69 32 -76 0 -19 -49 -76
-65 -76 -7 0 -16 10 -19 23 -14 50 -85 560 -79 570 7 11 219 3 288 -12z m410
-53 c352 -71 487 -115 741 -242 143 -72 472 -280 531 -335 20 -19 21 -28 16
-98 -8 -126 -15 -141 -93 -210 -39 -35 -83 -66 -97 -69 -26 -7 -40 3 -68 51
-9 15 -13 16 -50 2 -22 -9 -67 -18 -100 -21 -33 -3 -96 -17 -140 -32 -50 -16
-114 -28 -170 -31 -120 -7 -316 12 -373 37 -80 36 -166 106 -258 211 -65 75
-106 112 -145 133 -124 66 -144 122 -49 140 77 15 92 35 105 142 5 37 2 62
-10 90 -8 21 -20 70 -26 108 -12 88 -27 112 -92 142 l-52 25 90 -6 c50 -4 158
-20 240 -37z m1035 -998 c11 -7 4 -10 -25 -10 -29 0 -36 3 -25 10 8 5 20 10
25 10 6 0 17 -5 25 -10z"/>
</g>
</svg>
