<?xml version="1.0" standalone="no"?>
<!DOCTYPE svg PUBLIC "-//W3C//DTD SVG 20010904//EN"
 "http://www.w3.org/TR/2001/REC-SVG-20010904/DTD/svg10.dtd">
<svg version="1.0" xmlns="http://www.w3.org/2000/svg"
 width="1024.000000pt" height="1024.000000pt" viewBox="0 0 1024.000000 1024.000000"
 preserveAspectRatio="xMidYMid meet">

<g transform="translate(0.000000,1024.000000) scale(0.100000,-0.100000)"
fill="#000000" stroke="none">
<path d="M4825 10024 c-22 -2 -96 -8 -165 -14 -979 -83 -1959 -498 -2735
-1158 -133 -113 -450 -432 -554 -557 -606 -730 -980 -1557 -1110 -2455 -40
-274 -45 -362 -46 -720 0 -360 5 -434 46 -720 131 -904 522 -1764 1127 -2475
113 -133 432 -450 557 -554 725 -602 1527 -967 2425 -1105 293 -45 388 -51
750 -51 359 0 451 6 745 50 889 133 1707 506 2430 1106 125 104 444 421 557
554 605 711 996 1570 1127 2475 40 276 46 370 46 720 0 350 -6 444 -46 720
-131 905 -523 1764 -1127 2475 -113 133 -432 450 -557 554 -697 579 -1482 945
-2337 1091 -272 47 -451 62 -778 65 -173 1 -333 1 -355 -1z m64 -45 c-6 -12
-34 -46 -63 -75 -38 -39 -60 -54 -79 -54 -15 0 -27 2 -27 5 0 3 25 36 56 75
50 62 60 70 91 70 31 0 33 -2 22 -21z m631 -11 c-1 -57 -37 -116 -122 -202
-110 -109 -204 -183 -293 -230 -29 -15 -25 -15 95 -16 299 -1 668 -50 998
-133 73 -18 139 -29 149 -26 10 4 63 21 118 38 193 61 341 153 390 246 22 40
28 40 108 6 39 -17 45 -23 39 -43 -3 -12 -27 -44 -53 -70 -76 -76 -333 -191
-463 -207 l-51 -6 148 -53 c334 -119 687 -293 938 -463 l56 -38 164 4 c125 2
182 8 241 23 93 25 169 63 197 98 l20 26 55 -47 c61 -53 61 -63 2 -103 -75
-51 -364 -93 -507 -73 -40 5 -76 8 -81 5 -4 -3 -54 26 -110 64 -1029 688
-2311 909 -3513 606 -1441 -363 -2605 -1440 -3082 -2849 -494 -1462 -182
-3082 821 -4254 524 -614 1216 -1076 1981 -1324 872 -283 1826 -285 2695 -5
1342 431 2397 1483 2833 2823 288 884 285 1853 -7 2730 -74 222 -115 323 -212
523 -225 468 -487 836 -853 1203 -158 157 -305 287 -456 400 -53 40 -93 74
-91 77 3 3 31 -15 63 -38 299 -224 598 -513 828 -800 14 -18 53 -35 135 -62
254 -82 368 -87 510 -24 11 4 26 -11 52 -54 l38 -60 -25 -16 c-43 -28 -100
-35 -193 -24 -152 19 -330 69 -401 112 -34 21 -34 21 17 -48 67 -93 187 -280
246 -383 77 -135 218 -426 266 -552 l45 -116 99 -74 c176 -130 345 -199 450
-184 l43 7 17 -67 c9 -37 15 -70 12 -72 -17 -17 -101 -14 -156 6 -117 43 -291
147 -374 224 -25 24 -46 42 -46 40 0 -2 16 -56 35 -121 98 -333 154 -646 181
-1021 3 -52 10 -99 15 -105 5 -6 35 -48 67 -93 128 -182 248 -280 375 -307 26
-6 27 -9 27 -64 0 -31 -4 -63 -9 -71 -14 -22 -78 -6 -138 35 -95 65 -249 243
-302 349 l-28 55 -6 -202 c-10 -318 -50 -610 -124 -905 -22 -85 -35 -160 -31
-170 3 -10 20 -63 37 -118 61 -193 153 -341 246 -390 40 -22 40 -28 5 -107
-17 -39 -23 -45 -42 -40 -12 3 -43 26 -68 51 -77 77 -193 335 -209 465 l-6 51
-39 -110 c-118 -337 -274 -661 -452 -937 l-63 -97 4 -163 c4 -225 41 -359 117
-430 l30 -28 -48 -55 -48 -55 -33 32 c-37 36 -63 106 -83 226 -14 87 -18 291
-7 346 8 38 6 36 -54 -45 -176 -238 -475 -554 -699 -741 l-116 -95 -42 -134
c-76 -243 -80 -349 -18 -489 4 -11 -11 -26 -54 -53 l-60 -37 -20 32 c-29 48
-33 102 -15 219 19 129 57 265 95 340 l29 57 -112 -79 c-273 -191 -684 -409
-952 -504 -45 -16 -58 -28 -125 -118 -131 -176 -200 -345 -185 -450 l7 -42
-67 -18 c-37 -10 -70 -16 -73 -13 -3 3 -7 27 -10 54 -3 37 2 64 23 118 49 121
150 286 224 364 21 22 36 40 34 40 -2 0 -56 -16 -121 -34 -331 -98 -621 -151
-961 -177 -85 -6 -159 -15 -165 -20 -6 -5 -40 -30 -76 -54 -88 -60 -208 -169
-253 -229 -35 -48 -59 -100 -72 -159 -6 -28 -6 -28 -73 -25 -65 3 -67 4 -70
31 -6 47 38 118 127 207 101 101 191 171 266 209 l55 28 -202 6 c-313 10 -610
50 -905 124 -85 22 -160 35 -170 31 -10 -3 -63 -20 -118 -37 -193 -61 -341
-153 -390 -246 -22 -40 -28 -40 -108 -6 -39 17 -45 23 -39 43 3 12 27 44 53
70 76 76 333 191 463 207 l51 6 -148 53 c-327 117 -627 263 -899 439 l-98 62
-162 -3 c-123 -3 -182 -9 -241 -25 -89 -23 -170 -64 -198 -99 l-18 -24 -56 48
-55 48 32 33 c36 37 106 63 228 83 84 14 299 19 345 7 l30 -7 -35 27 c-352
279 -589 501 -782 733 l-95 115 -114 37 c-252 82 -367 87 -509 24 -11 -4 -26
11 -52 54 l-38 60 25 16 c41 27 103 34 195 23 148 -17 328 -68 400 -112 l35
-22 -31 40 c-45 57 -211 314 -268 414 -78 136 -218 427 -266 552 l-45 116
-104 77 c-177 130 -335 195 -442 181 l-46 -6 -17 66 c-9 37 -15 70 -12 72 3 3
26 8 51 10 32 4 63 -1 108 -17 112 -40 298 -152 374 -226 24 -22 43 -39 43
-37 0 2 -16 56 -35 121 -96 326 -159 676 -180 1011 -4 57 -11 109 -16 115 -5
6 -36 48 -68 94 -68 97 -174 209 -237 251 -24 16 -71 37 -105 47 l-60 18 3 66
c3 63 4 65 31 68 15 2 48 -6 72 -18 92 -45 275 -243 341 -370 l31 -60 6 203
c11 328 47 594 126 909 20 82 33 155 29 165 -3 10 -20 63 -37 118 -61 193
-153 341 -246 390 -40 22 -40 28 -6 108 17 39 23 45 43 39 38 -10 111 -93 154
-177 56 -107 113 -264 122 -333 l7 -57 39 110 c116 333 276 664 453 937 l62
98 -3 162 c-3 122 -9 182 -24 240 -25 93 -63 169 -98 197 l-26 20 48 56 48 55
33 -32 c37 -36 63 -106 83 -226 14 -87 18 -291 7 -346 -8 -38 -6 -36 54 45
177 239 472 551 699 740 l115 96 38 115 c80 246 86 366 23 508 -4 11 11 26 54
52 l60 38 16 -25 c28 -43 35 -100 24 -193 -19 -150 -55 -283 -101 -375 l-29
-58 52 39 c283 208 717 442 1013 547 45 16 58 28 125 118 131 176 200 345 185
450 l-7 42 67 18 c37 10 70 16 73 13 3 -3 7 -27 10 -54 3 -37 -2 -64 -23 -118
-49 -122 -149 -287 -221 -361 -22 -24 -39 -43 -37 -43 2 0 56 16 121 34 331
98 615 150 961 177 85 6 159 16 165 21 6 5 40 29 76 53 89 62 209 170 253 229
35 48 59 100 71 159 6 26 8 27 76 27 l70 0 0 -32z m869 -124 c17 -4 31 -9 31
-13 0 -3 -29 -26 -64 -49 -62 -43 -137 -65 -149 -45 -5 8 125 109 144 112 4 1
21 -2 38 -5z m-3005 -216 c-32 -87 -59 -128 -85 -128 -24 0 -24 -1 10 95 23
65 34 82 57 92 16 7 32 12 36 13 4 0 -4 -33 -18 -72z m2041 -228 c737 -54
1431 -287 2039 -687 267 -175 446 -322 687 -562 188 -188 264 -274 400 -456
722 -960 1006 -2171 788 -3360 -193 -1048 -783 -1999 -1644 -2647 -955 -719
-2175 -1005 -3360 -787 -1143 210 -2166 893 -2808 1875 -459 702 -697 1502
-697 2344 0 1361 637 2627 1735 3447 640 478 1430 773 2230 832 162 12 470 12
630 1z m2356 -177 c16 -10 29 -20 29 -24 0 -12 -115 -43 -162 -43 -42 -1 -80
16 -67 29 3 3 41 16 85 29 43 13 81 24 82 25 2 0 17 -7 33 -16z m-5704 -364
c-7 -88 -23 -132 -50 -137 -16 -3 -17 3 -11 89 6 77 11 96 28 111 12 9 25 17
30 18 5 0 6 -35 3 -81z m6845 -663 c26 -31 22 -36 -26 -36 -95 0 -186 30 -186
62 0 5 41 6 97 2 81 -6 100 -11 115 -28z m-7856 -443 c21 -67 25 -146 7 -164
-17 -17 -19 -14 -47 81 -23 80 -23 86 -8 112 9 16 19 28 23 28 3 0 15 -26 25
-57z m8528 -822 c78 -27 87 -35 100 -79 l7 -22 -73 26 c-87 32 -128 58 -128
85 0 24 -1 24 94 -10z m-9157 -540 c56 -71 90 -169 65 -185 -5 -3 -32 29 -61
71 -45 66 -51 80 -45 109 7 41 12 41 41 5z m9485 -921 c34 -27 66 -50 70 -50
4 0 8 -18 8 -40 0 -37 -2 -40 -19 -31 -10 6 -44 34 -75 62 -43 39 -56 58 -56
80 0 16 2 29 5 29 3 0 33 -22 67 -50z m-9589 -640 c55 -50 71 -78 57 -100 -5
-8 -29 6 -79 45 -63 51 -71 61 -71 92 0 30 2 33 19 24 10 -6 44 -33 74 -61z
m9471 -873 c40 -60 46 -73 40 -103 -3 -19 -9 -34 -13 -34 -13 0 -91 126 -97
157 -7 36 2 72 15 57 4 -5 29 -40 55 -77z m-9091 -619 c24 -17 38 -58 20 -58
-5 0 -43 13 -87 29 -78 27 -87 35 -100 79 l-7 22 73 -26 c40 -15 85 -35 101
-46z m8487 -720 c6 -24 17 -63 25 -87 13 -39 13 -46 -2 -72 -10 -16 -20 -29
-24 -29 -8 0 -37 91 -45 139 -6 38 9 91 25 91 6 0 15 -19 21 -42z m-7714 -560
c16 -7 30 -21 32 -31 3 -15 -5 -16 -90 -10 -77 5 -95 10 -110 27 -9 12 -17 25
-18 30 0 13 153 0 186 -16z m6737 -630 c-5 -77 -10 -95 -27 -110 -32 -26 -36
-22 -36 35 1 95 25 167 56 167 11 0 13 -18 7 -92z m-5570 -357 c15 -15 10 -18
-83 -45 -80 -23 -86 -23 -112 -8 -16 9 -28 19 -28 23 0 3 26 14 58 23 31 10
62 19 67 22 18 6 87 -4 98 -15z m4307 -338 c0 -5 -13 -43 -29 -87 -27 -78 -35
-87 -79 -100 l-22 -7 26 73 c32 87 58 128 85 128 10 0 19 -3 19 -7z m-2926
-231 c3 -5 -29 -32 -71 -61 -66 -45 -80 -51 -109 -45 -19 3 -34 9 -34 13 0 7
117 86 140 94 24 9 68 8 74 -1z m1486 -117 c0 -3 -25 -36 -55 -74 -42 -52 -63
-70 -86 -73 -39 -6 -43 3 -17 38 52 70 102 114 130 114 15 0 28 -2 28 -5z"/>
<path d="M4875 9390 c-580 -34 -1141 -184 -1668 -446 -413 -206 -742 -442
-1080 -774 -490 -479 -848 -1049 -1062 -1693 -446 -1336 -209 -2799 633 -3922
230 -305 545 -622 846 -849 508 -382 1096 -648 1716 -775 1272 -260 2589 69
3590 898 448 370 830 851 1089 1368 520 1038 600 2218 225 3315 -297 869 -890
1641 -1659 2158 -270 181 -565 334 -870 450 -554 210 -1163 304 -1760 270z
m655 -724 c732 -91 1380 -376 1925 -847 675 -584 1092 -1370 1211 -2284 22
-163 25 -639 6 -790 -38 -291 -91 -533 -172 -775 -129 -385 -342 -770 -608
-1100 -101 -124 -311 -341 -437 -449 -343 -296 -736 -524 -1160 -672 -181 -63
-280 -90 -475 -129 -256 -51 -398 -64 -695 -65 -428 0 -768 54 -1155 186
-1039 352 -1877 1188 -2227 2224 -84 249 -140 498 -175 785 -20 159 -16 611 6
785 106 839 464 1562 1060 2143 599 583 1346 923 2201 1001 140 13 546 6 695
-13z"/>
</g>
</svg>
