<?xml version="1.0" standalone="no"?>
<!DOCTYPE svg PUBLIC "-//W3C//DTD SVG 20010904//EN"
 "http://www.w3.org/TR/2001/REC-SVG-20010904/DTD/svg10.dtd">
<svg version="1.0" xmlns="http://www.w3.org/2000/svg"
 width="524.000000pt" height="530.000000pt" viewBox="0 0 524.000000 530.000000"
 preserveAspectRatio="xMidYMid meet">

<g transform="translate(0.000000,530.000000) scale(0.100000,-0.100000)"
fill="#193d78" stroke="none">
<path d="M2375 5289 c-612 -58 -1201 -344 -1633 -794 -704 -732 -930 -1815
-577 -2771 48 -130 169 -376 240 -489 482 -766 1323 -1235 2215 -1235 703 0
1386 292 1878 805 118 123 248 288 337 430 71 113 192 359 240 489 133 360
189 777 155 1156 -99 1104 -855 2023 -1915 2325 -279 80 -642 112 -940 84z
m456 -109 c648 -50 1277 -367 1696 -855 319 -370 512 -777 595 -1255 19 -109
22 -162 22 -410 0 -253 -2 -299 -23 -410 -34 -191 -74 -333 -138 -500 -189
-490 -538 -919 -988 -1213 -304 -198 -685 -337 -1047 -382 -143 -18 -464 -20
-606 -4 -387 43 -778 185 -1107 404 -254 168 -446 351 -650 620 -126 165 -280
466 -355 692 -294 894 -75 1866 575 2542 530 552 1260 830 2026 771z"/>
<path d="M2395 5099 c-546 -47 -1095 -307 -1496 -708 -403 -405 -649 -920
-704 -1481 -47 -470 34 -919 240 -1333 372 -745 1092 -1252 1914 -1347 161
-19 555 -8 701 19 230 43 446 114 645 211 651 319 1125 901 1306 1605 46 176
60 293 66 540 5 213 3 257 -16 390 -89 612 -376 1133 -846 1537 -250 215 -622
410 -941 493 -286 75 -572 99 -869 74z m430 -79 c311 -29 560 -98 830 -230
823 -401 1334 -1209 1336 -2115 2 -379 -73 -707 -236 -1043 -297 -611 -826
-1057 -1478 -1246 -106 -31 -199 -50 -347 -72 -162 -23 -548 -16 -705 14 -256
49 -415 102 -640 212 -461 224 -832 592 -1068 1057 -406 801 -324 1753 214
2477 92 124 289 330 404 423 180 146 430 291 646 377 306 120 711 177 1044
146z"/>
<path d="M2440 4784 c-225 -22 -492 -93 -688 -185 -46 -21 -85 -39 -87 -39 -2
0 -43 -23 -91 -51 -149 -86 -234 -149 -428 -319 -42 -37 -195 -216 -248 -290
-562 -791 -524 -1854 93 -2595 443 -531 1102 -814 1783 -765 748 53 1408 490
1751 1160 49 96 87 189 130 315 134 391 129 919 -12 1330 -101 294 -268 566
-487 793 -323 335 -716 540 -1201 627 -88 16 -418 28 -515 19z m278 -420 c32
-24 72 -98 72 -135 0 -47 -42 -111 -90 -136 -54 -29 -84 -29 -140 0 -59 30
-82 65 -88 129 -4 62 19 106 78 146 29 20 44 23 88 20 31 -3 64 -13 80 -24z
m-919 -303 c69 -50 85 -155 33 -220 -76 -96 -191 -92 -259 9 -30 43 -31 121
-3 168 43 69 160 91 229 43z m1839 2 c51 -38 67 -70 67 -132 -1 -48 -6 -65
-28 -94 -71 -93 -214 -81 -267 22 -42 84 -10 178 75 217 40 19 119 12 153 -13z
m-745 -322 c373 -98 662 -363 784 -716 256 -743 -323 -1513 -1107 -1472 -488
26 -895 361 -1021 842 -21 79 -24 111 -23 270 0 162 3 190 26 277 113 417 453
733 874 813 113 21 362 14 467 -14z m-1712 -442 c47 -16 84 -53 104 -105 15
-41 16 -47 0 -94 -17 -52 -59 -96 -101 -106 -40 -10 -114 2 -143 23 -101 76
-76 239 44 281 40 14 56 14 96 1z m3020 -15 c102 -52 101 -215 0 -272 -126
-71 -273 43 -232 179 30 100 136 143 232 93z m-3005 -963 c46 -21 78 -57 94
-107 9 -27 8 -44 -5 -83 -25 -75 -73 -111 -150 -111 -92 0 -155 64 -155 156 0
65 29 111 90 142 53 27 73 27 126 3z m3010 -11 c131 -82 69 -290 -86 -290
-116 0 -194 124 -142 226 25 48 40 62 89 80 47 17 93 12 139 -16z m-2427 -779
c98 -50 113 -171 32 -252 -65 -65 -154 -63 -220 5 -29 30 -35 44 -39 92 -6 72
15 115 72 149 50 30 103 32 155 6z m1859 -8 c91 -68 95 -192 7 -259 -71 -54
-167 -39 -223 34 -22 29 -27 46 -27 92 0 99 70 164 168 157 27 -3 60 -13 75
-24z m-942 -289 c98 -47 120 -176 43 -253 -62 -62 -155 -63 -219 -2 -128 122
16 331 176 255z"/>
<path d="M2564 3673 c-22 -23 -25 -35 -21 -68 7 -49 36 -75 86 -75 51 0 85 36
84 87 -2 77 -97 112 -149 56z"/>
<path d="M2085 3538 c-71 -84 48 -186 126 -109 37 37 38 78 4 115 -36 39 -94
37 -130 -6z"/>
<path d="M3042 3547 c-27 -29 -29 -86 -4 -117 10 -13 33 -23 57 -27 54 -7 84
17 92 74 5 35 2 45 -20 67 -35 35 -94 36 -125 3z"/>
<path d="M2430 3429 c-275 -69 -500 -298 -571 -580 -30 -118 -23 -319 14 -430
85 -252 279 -440 537 -520 64 -20 96 -23 220 -23 152 0 197 8 324 63 273 119
466 419 466 726 0 358 -250 675 -604 765 -105 27 -279 26 -386 -1z m305 -64
c354 -62 605 -352 605 -700 0 -259 -132 -487 -359 -620 -121 -72 -192 -90
-351 -90 -154 0 -205 12 -332 77 -130 67 -263 206 -320 335 -87 197 -80 436
17 623 101 192 283 327 497 370 117 23 135 23 243 5z"/>
<path d="M1757 3209 c-40 -31 -50 -62 -33 -104 26 -62 89 -74 137 -26 36 36
38 79 7 115 -33 37 -76 43 -111 15z"/>
<path d="M3430 3223 c-52 -19 -76 -70 -56 -118 26 -62 89 -74 137 -26 46 46
37 106 -21 136 -31 16 -36 17 -60 8z"/>
<path d="M1635 2738 c-51 -27 -61 -89 -21 -134 47 -56 146 -21 146 52 0 46 -9
63 -41 79 -33 18 -57 18 -84 3z"/>
<path d="M3545 2741 c-70 -30 -64 -137 8 -160 84 -28 152 68 95 133 -25 28
-72 40 -103 27z"/>
<path d="M1744 2246 c-57 -49 -22 -146 53 -146 46 0 68 13 83 49 36 89 -64
160 -136 97z"/>
<path d="M3394 2246 c-39 -33 -39 -89 0 -122 58 -51 146 -14 146 61 0 76 -87
112 -146 61z"/>
<path d="M2125 1921 c-63 -26 -80 -106 -31 -147 40 -35 87 -32 120 7 14 17 26
39 26 50 0 36 -29 77 -61 88 -18 6 -32 11 -33 10 -1 0 -10 -4 -21 -8z"/>
<path d="M3068 1914 c-81 -44 -54 -164 37 -164 92 0 118 122 35 165 -35 18
-38 18 -72 -1z"/>
<path d="M2588 1784 c-56 -30 -64 -90 -19 -135 48 -48 111 -36 137 26 19 46 3
88 -41 109 -40 19 -43 19 -77 0z"/>
</g>
</svg>
