<?xml version="1.0" standalone="no"?>
<!DOCTYPE svg PUBLIC "-//W3C//DTD SVG 20010904//EN"
 "http://www.w3.org/TR/2001/REC-SVG-20010904/DTD/svg10.dtd">
<svg version="1.0" xmlns="http://www.w3.org/2000/svg"
 width="383.000000pt" height="378.000000pt" viewBox="0 0 383.000000 378.000000"
 preserveAspectRatio="xMidYMid meet">

<g transform="translate(0.000000,378.000000) scale(0.100000,-0.100000)"
fill="#191970" stroke="none">
<path d="M1795 3763 c-182 -14 -414 -65 -557 -122 -256 -101 -469 -243 -655
-432 -119 -122 -152 -162 -236 -289 -193 -291 -292 -607 -304 -963 -7 -206 5
-334 48 -510 189 -776 834 -1340 1631 -1426 348 -38 708 30 1037 196 197 99
308 180 476 348 168 168 249 279 350 479 147 292 216 602 202 916 -36 785
-527 1447 -1266 1704 -220 77 -511 116 -726 99z m241 -73 c216 -18 384 -58
573 -137 332 -138 604 -364 807 -668 362 -545 400 -1239 98 -1825 -91 -175
-178 -294 -329 -445 -150 -151 -267 -237 -445 -329 -216 -111 -437 -175 -685
-197 -553 -49 -1139 189 -1500 611 -475 553 -578 1306 -271 1965 201 430 598
782 1053 934 176 59 317 84 549 100 12 0 79 -4 150 -9z"/>
<path d="M1730 3634 c-612 -76 -1126 -439 -1389 -979 -232 -477 -236 -1030
-11 -1510 241 -515 699 -868 1275 -982 141 -28 503 -25 645 6 709 152 1228
669 1380 1377 16 74 23 148 27 294 5 170 2 211 -17 324 -63 373 -218 682 -474
944 -253 260 -549 422 -909 498 -99 21 -156 26 -307 29 -102 2 -201 1 -220 -1z
m437 -50 c495 -73 937 -364 1204 -794 189 -305 282 -690 251 -1035 -50 -542
-316 -994 -757 -1290 -248 -166 -514 -259 -822 -287 -217 -19 -470 14 -687 89
-575 199 -997 679 -1122 1277 -34 165 -43 405 -20 566 84 594 443 1085 978
1334 305 142 634 190 975 140z"/>
<path d="M1688 3505 c-698 -100 -1258 -639 -1378 -1328 -48 -279 -30 -538 56
-802 34 -104 130 -301 189 -390 243 -360 603 -602 1038 -697 88 -19 132 -22
322 -22 190 0 233 3 318 22 435 97 791 335 1028 687 480 710 328 1674 -346
2200 -201 156 -436 264 -691 316 -131 26 -401 34 -536 14z m492 -45 c461 -75
883 -370 1119 -784 260 -457 277 -1025 44 -1491 -132 -263 -320 -476 -558
-631 -743 -483 -1726 -275 -2210 469 -157 242 -240 509 -252 807 -23 626 310
1194 868 1479 311 159 635 208 989 151z"/>
<path d="M1851 2805 c-183 -58 -186 -325 -5 -385 55 -18 136 -8 182 23 47 30
92 113 92 166 0 39 -31 114 -58 144 -46 51 -141 74 -211 52z m111 -15 c74 -21
137 -102 138 -178 1 -135 -149 -228 -270 -166 -146 73 -127 297 28 344 38 12
61 11 104 0z"/>
<path d="M1838 2723 l-58 -35 0 -77 0 -77 67 -38 66 -38 31 18 c112 64 106 57
106 133 0 52 -4 71 -17 83 -29 24 -110 68 -125 67 -7 0 -39 -17 -70 -36z m102
7 c11 -7 4 -10 -25 -10 -29 0 -36 3 -25 10 8 5 20 10 25 10 6 0 17 -5 25 -10z
m-119 -64 c-13 -28 -17 -30 -19 -13 -3 16 20 47 34 47 1 0 -6 -15 -15 -34z
m154 9 c17 -16 25 -35 25 -59 0 -48 -8 -65 -41 -81 -40 -21 -74 -18 -106 9
-22 19 -28 32 -28 66 0 34 6 47 28 66 38 32 90 32 122 -1z m55 -25 c0 -24 -1
-24 -20 8 -25 41 -25 45 0 30 11 -7 20 -24 20 -38z m-200 -116 c0 -2 -7 -1
-15 2 -8 4 -15 18 -15 33 l0 26 15 -29 c8 -15 15 -30 15 -32z m200 33 c0 -15
-9 -28 -24 -35 l-24 -11 21 34 c26 41 27 41 27 12z m-80 -64 c0 -1 -9 -7 -20
-13 -15 -8 -25 -8 -39 3 -18 12 -16 13 20 12 21 0 39 -1 39 -2z"/>
<path d="M1205 2436 c-149 -68 -161 -279 -19 -362 39 -23 53 -26 112 -22 75 4
112 24 159 85 21 28 28 49 31 97 4 74 -23 134 -81 180 -33 26 -48 31 -105 33
-42 2 -78 -2 -97 -11z m177 -27 c106 -54 120 -231 24 -304 -144 -110 -343 20
-296 194 31 117 158 168 272 110z"/>
<path d="M1218 2364 l-58 -35 0 -79 0 -79 63 -37 62 -37 65 36 65 36 3 79 3
80 -65 36 c-35 20 -68 36 -73 35 -4 0 -34 -16 -65 -35z m96 3 c16 -12 13 -13
-19 -9 -26 3 -33 7 -24 13 19 12 22 11 43 -4z m-105 -43 c-8 -10 -19 -29 -26
-43 l-11 -26 -1 24 c-1 14 6 33 16 43 20 22 41 24 22 2z m142 -13 c20 -20 29
-39 29 -61 0 -44 -47 -90 -93 -90 -91 0 -122 122 -42 168 36 20 75 14 106 -17z
m49 -13 c0 -12 -1 -19 -3 -17 -2 2 -11 17 -21 32 -17 28 -17 28 3 17 12 -6 21
-20 21 -32z m-192 -121 c16 -18 16 -18 -11 -6 -21 10 -27 19 -26 43 0 31 0 31
10 6 6 -13 18 -33 27 -43z m192 23 c0 -10 -9 -24 -20 -30 -19 -10 -19 -10 -2
20 20 35 22 36 22 10z m-70 -55 c0 -11 -40 -24 -57 -18 -14 6 -11 9 17 14 19
4 36 7 38 8 1 0 2 -1 2 -4z"/>
<path d="M2460 2439 c-47 -19 -100 -81 -116 -135 -46 -159 114 -305 267 -244
150 59 174 250 46 354 -33 26 -47 31 -105 33 -37 2 -78 -2 -92 -8z m178 -35
c79 -46 108 -155 63 -241 -59 -116 -220 -134 -305 -33 -67 81 -54 202 29 266
65 49 136 52 213 8z"/>
<path d="M2468 2363 l-58 -35 0 -78 0 -78 64 -36 65 -36 65 36 66 36 0 78 0
78 -64 36 c-35 20 -68 36 -73 35 -4 0 -34 -17 -65 -36z m95 5 c15 -11 11 -13
-27 -13 -37 0 -41 1 -27 12 21 16 33 16 54 1z m-106 -46 c-10 -10 -17 -24 -17
-30 0 -7 -4 -12 -10 -12 -18 0 -10 29 12 44 30 21 35 20 15 -2z m144 -11 c20
-20 29 -39 29 -61 0 -45 -47 -90 -93 -90 -48 0 -87 40 -87 90 0 83 92 120 151
61z m49 -13 c0 -12 -1 -19 -3 -17 -2 2 -11 17 -21 32 -17 28 -17 28 3 17 12
-6 21 -20 21 -32z m-203 -103 c6 -14 8 -25 4 -25 -12 0 -31 23 -31 37 0 21 14
15 27 -12z m203 5 c0 -10 -9 -24 -20 -30 -19 -10 -19 -10 -2 20 20 35 22 36
22 10z m-86 -68 c-19 -10 -29 -10 -48 0 -23 12 -22 13 24 13 46 0 47 -1 24
-13z"/>
<path d="M1788 2301 c-81 -26 -139 -63 -191 -121 -196 -218 -131 -547 133
-678 72 -36 77 -37 185 -37 105 0 113 2 180 34 91 45 166 120 208 208 43 93
50 219 17 317 -73 221 -314 346 -532 277z m242 -17 c193 -57 322 -255 292
-448 -22 -139 -108 -258 -230 -318 -57 -28 -78 -33 -161 -36 -80 -3 -106 0
-153 18 -125 47 -216 139 -256 259 -71 213 47 449 261 522 66 22 177 24 247 3z"/>
<path d="M1822 2235 c-74 -21 -108 -40 -157 -90 -180 -180 -128 -475 103 -583
49 -23 70 -27 147 -27 79 0 97 4 149 29 76 37 141 102 174 174 22 49 26 71 26
152 0 115 -19 164 -94 244 -90 95 -227 135 -348 101z m184 -20 c242 -72 327
-367 158 -554 -117 -130 -315 -148 -463 -41 -81 59 -137 189 -127 294 22 218
228 362 432 301z"/>
<path d="M1204 1712 c-51 -25 -99 -82 -113 -137 -37 -146 103 -285 247 -246
51 14 119 73 139 118 35 84 2 194 -74 247 -56 39 -138 46 -199 18z m170 -22
c59 -28 96 -89 96 -156 0 -90 -31 -141 -105 -175 -103 -47 -223 10 -257 122
-14 48 0 114 33 161 47 65 153 87 233 48z"/>
<path d="M1223 1644 c-35 -20 -63 -41 -64 -47 -2 -43 0 -149 3 -151 19 -15
118 -66 128 -66 7 0 39 16 71 36 l59 35 0 77 0 77 -63 35 c-34 19 -64 36 -67
37 -3 1 -33 -14 -67 -33z m91 3 c15 -11 12 -12 -24 -12 -36 0 -39 1 -24 12 10
7 21 13 24 13 3 0 14 -6 24 -13z m-117 -67 c-19 -34 -22 -37 -25 -18 -3 14 4
29 18 40 31 25 31 23 7 -22z m154 11 c60 -60 22 -150 -64 -151 -82 0 -117 91
-58 151 20 20 39 29 61 29 22 0 41 -9 61 -29z m48 -21 l0 -25 -10 24 c-5 14
-15 32 -22 40 -10 12 -9 12 11 0 14 -9 22 -23 21 -39z m-192 -112 c18 -20 11
-23 -18 -8 -13 7 -19 21 -18 43 0 31 1 31 10 7 6 -13 17 -33 26 -42z m183 -3
c-7 -8 -17 -15 -23 -15 -5 0 -3 8 6 18 10 10 18 25 18 33 1 8 3 7 6 -4 3 -10
-1 -24 -7 -32z m-75 -45 c-8 -13 -35 -13 -55 0 -11 7 -5 10 23 10 23 0 36 -4
32 -10z"/>
<path d="M2454 1711 c-135 -61 -158 -256 -42 -345 128 -96 313 -18 326 139 2
29 -1 69 -8 89 -36 111 -167 167 -276 117z m190 -32 c95 -65 106 -213 21 -288
-45 -39 -101 -55 -160 -47 -61 10 -128 71 -145 135 -45 167 141 298 284 200z"/>
<path d="M2473 1644 l-63 -36 0 -81 0 -82 59 -32 c33 -18 64 -33 70 -33 5 0
37 16 70 35 l61 36 0 77 0 77 -63 35 c-34 19 -64 36 -67 37 -3 1 -33 -14 -67
-33z m88 3 c14 -11 11 -12 -23 -12 -34 0 -37 1 -22 12 22 16 25 16 45 0z
m-114 -64 c-18 -31 -22 -34 -26 -18 -2 11 6 26 19 37 31 25 32 23 7 -19z m161
2 c26 -30 28 -64 7 -104 -16 -33 -33 -41 -81 -41 -80 0 -113 93 -54 152 27 26
36 30 68 25 22 -4 46 -17 60 -32z m42 -15 l0 -25 -14 27 c-8 16 -18 33 -21 39
-4 6 2 5 14 -3 12 -7 21 -23 21 -38z m-185 -128 c-10 -10 -45 22 -45 41 0 21
2 20 24 -8 13 -16 23 -31 21 -33z m175 13 c-22 -26 -30 -16 -12 15 12 21 18
25 20 14 2 -8 -2 -21 -8 -29z m-75 -45 c-8 -13 -35 -13 -55 0 -11 7 -5 10 23
10 23 0 36 -4 32 -10z"/>
<path d="M1823 1346 c-77 -36 -108 -88 -108 -181 0 -93 31 -145 108 -181 82
-38 159 -28 223 28 87 77 96 199 21 285 -64 73 -153 91 -244 49z m175 -17
c123 -60 135 -240 21 -316 -105 -69 -263 -12 -285 102 -31 165 117 285 264
214z"/>
<path d="M1849 1281 l-64 -37 0 -79 0 -79 64 -37 63 -37 69 40 69 40 0 69 c0
78 -2 81 -86 129 l-50 28 -65 -37z m101 -5 c0 -2 -19 -4 -42 -4 -42 -1 -42 0
-18 13 17 9 30 10 42 4 10 -5 18 -11 18 -13z m27 -48 c47 -44 24 -129 -41
-152 -48 -17 -117 37 -116 91 2 78 99 116 157 61z m-155 -8 c-16 -27 -17 -28
-20 -9 -2 12 2 26 10 30 24 16 27 9 10 -21z m198 16 c6 -8 10 -24 8 -34 -2
-16 -6 -14 -20 14 -18 34 -11 46 12 20z m-181 -151 c16 -19 15 -19 -9 -4 -14
9 -26 27 -28 40 -2 23 -2 23 9 4 7 -11 19 -29 28 -40z m191 35 c0 -10 -10 -24
-21 -31 -21 -11 -21 -11 -3 20 21 36 24 38 24 11z m-95 -74 c-14 -10 -25 -11
-37 -5 -27 14 -22 19 19 19 34 0 35 -1 18 -14z"/>
</g>
</svg>
