<?xml version="1.0" standalone="no"?>
<!DOCTYPE svg PUBLIC "-//W3C//DTD SVG 20010904//EN"
 "http://www.w3.org/TR/2001/REC-SVG-20010904/DTD/svg10.dtd">
<svg version="1.0" xmlns="http://www.w3.org/2000/svg"
 width="663.000000pt" height="750.000000pt" viewBox="0 0 663.000000 750.000000"
 preserveAspectRatio="xMidYMid meet">

<g transform="translate(0.000000,750.000000) scale(0.100000,-0.100000)"
fill="#191970" stroke="none">
<path d="M4218 7363 c18 -2 45 -2 60 0 15 2 0 4 -33 4 -33 0 -45 -2 -27 -4z"/>
<path d="M3940 7353 c-30 -2 -181 -10 -335 -18 -375 -20 -585 -36 -580 -46 22
-34 381 -13 1115 64 43 5 -123 5 -200 0z"/>
<path d="M4055 7320 c-230 -20 -462 -42 -585 -56 -225 -26 -790 -122 -879
-150 -8 -3 28 -25 79 -50 88 -43 96 -45 134 -35 51 13 353 74 501 100 147 26
237 37 445 57 159 15 179 19 220 45 25 15 79 42 120 60 80 33 92 40 69 38 -8
-1 -54 -5 -104 -9z"/>
<path d="M2125 7270 c-128 -9 -243 -29 -314 -55 -33 -12 -23 -14 114 -15 83 0
168 -3 190 -5 22 -2 92 -9 155 -15 63 -6 139 -16 169 -22 38 -7 71 -7 110 1
31 5 134 25 229 42 94 18 170 34 168 37 -29 28 -564 49 -821 32z"/>
<path d="M4403 7255 c-416 -106 -773 -464 -1066 -1068 -37 -76 -70 -151 -73
-165 -4 -15 -10 -31 -14 -37 -27 -40 -171 -470 -205 -614 -92 -396 -121 -559
-154 -901 -53 -529 -47 -1015 19 -1585 46 -390 162 -862 301 -1222 32 -84 59
-155 59 -158 0 -13 147 -307 187 -372 23 -39 43 -74 43 -78 0 -3 32 -52 72
-108 227 -323 459 -522 728 -625 138 -53 364 -65 525 -27 200 46 406 171 589
359 68 71 207 240 226 276 7 14 25 41 40 60 15 19 41 60 58 90 16 30 48 87 70
125 72 127 162 334 258 596 25 70 112 373 137 479 28 117 86 432 107 580 38
258 64 761 56 1050 -11 402 -37 693 -86 965 -57 316 -69 372 -111 520 -23 83
-50 179 -60 215 -16 59 -34 110 -114 325 -37 99 -139 323 -173 381 -15 27 -46
81 -67 119 -71 130 -196 302 -305 420 -206 222 -429 359 -670 411 -102 22
-268 17 -377 -11z m436 -1616 c290 -80 547 -408 701 -893 97 -308 141 -609
141 -979 0 -353 -45 -667 -136 -950 -19 -60 -35 -112 -35 -118 0 -22 -138
-302 -189 -383 -105 -167 -253 -310 -384 -370 -103 -48 -150 -59 -247 -59
-194 -1 -357 88 -532 290 -38 43 -68 81 -68 85 0 5 -15 29 -34 55 -103 144
-215 428 -285 724 -94 398 -96 1037 -5 1446 44 198 134 464 184 548 10 17 21
41 25 54 8 26 47 91 121 201 45 67 164 195 225 241 154 117 343 157 518 108z"/>
<path d="M4548 5387 c-72 -21 -156 -76 -234 -154 -215 -214 -365 -598 -435
-1113 -18 -127 -18 -553 0 -690 38 -296 101 -537 197 -753 119 -265 269 -435
446 -503 377 -144 752 270 892 985 39 196 53 316 62 525 14 304 -44 726 -134
986 -63 179 -77 213 -123 295 -24 42 -51 90 -59 106 -27 51 -133 169 -199 221
-99 78 -157 101 -270 105 -59 2 -114 -2 -143 -10z"/>
<path d="M1585 7118 c-45 -25 -163 -103 -199 -132 l-40 -31 200 -17 c213 -18
338 -44 476 -98 l78 -31 177 60 c98 33 199 65 226 72 26 6 47 15 47 19 0 4
-37 23 -82 43 -72 30 -136 48 -323 88 -159 34 -517 51 -560 27z"/>
<path d="M3715 7093 c-320 -38 -500 -66 -686 -109 -85 -19 -193 -43 -241 -54
-48 -10 -156 -40 -240 -66 -84 -25 -162 -49 -173 -51 -49 -12 -175 -55 -179
-62 -3 -4 13 -18 35 -32 22 -13 59 -39 82 -58 84 -67 73 -66 188 -27 57 20
167 52 244 72 359 92 377 96 687 140 l107 15 119 120 c65 65 111 118 103 118
-9 -1 -29 -4 -46 -6z"/>
<path d="M1132 6742 c-84 -96 -156 -192 -148 -199 3 -3 45 -9 93 -14 108 -11
220 -33 333 -65 77 -22 118 -39 302 -121 l56 -25 149 70 c81 38 179 82 216 98
65 26 67 28 50 45 -10 10 -40 30 -68 45 -27 15 -78 42 -113 61 -68 37 -248
102 -370 132 -103 26 -195 39 -324 46 l-106 6 -70 -79z"/>
<path d="M3380 6693 c-328 -39 -790 -160 -1140 -299 -74 -30 -139 -54 -143
-54 -7 0 -226 -99 -236 -107 -3 -2 13 -18 35 -36 21 -17 48 -41 59 -53 11 -12
46 -42 78 -68 l57 -47 83 35 c359 148 745 259 988 282 l55 5 33 67 c18 37 52
96 75 132 50 77 88 142 84 144 -2 1 -14 0 -28 -1z"/>
<path d="M826 6312 c-30 -48 -166 -318 -166 -330 0 -5 30 -12 68 -16 168 -17
398 -91 579 -187 65 -34 131 -71 146 -81 l28 -20 50 31 c28 17 52 31 55 31 2
0 44 24 92 53 48 30 117 70 155 91 37 20 67 39 67 41 0 8 -199 152 -245 176
-27 15 -79 43 -115 62 -134 73 -412 161 -545 172 -38 3 -87 8 -107 10 -35 5
-39 2 -62 -33z"/>
<path d="M2975 6075 c-73 -13 -214 -47 -373 -90 -51 -14 -151 -48 -222 -75
-71 -28 -132 -50 -135 -50 -8 0 -132 -56 -305 -139 -123 -58 -328 -171 -358
-197 -2 -1 5 -11 15 -21 10 -10 69 -67 130 -127 l112 -108 103 55 c57 30 114
58 128 62 14 4 52 21 85 37 179 87 487 185 655 208 47 6 92 14 101 16 10 3 27
35 43 82 37 105 73 203 106 290 33 84 39 80 -85 57z"/>
<path d="M497 5552 c-52 -155 -97 -321 -88 -326 3 -2 32 -7 63 -10 112 -14
302 -72 428 -131 143 -67 199 -99 342 -193 22 -14 42 -21 50 -16 7 4 65 46
128 93 63 47 142 105 175 129 33 24 60 47 60 51 0 16 -152 141 -256 211 -281
188 -531 287 -820 324 l-36 4 -46 -136z"/>
<path d="M2690 5354 c-58 -13 -148 -37 -200 -53 -52 -16 -106 -33 -120 -37
-54 -15 -330 -138 -454 -203 -141 -73 -192 -104 -389 -233 l-127 -83 151 -147
151 -146 67 43 c88 57 331 180 461 233 116 48 301 102 430 126 46 9 87 21 91
27 3 6 14 58 23 117 10 59 31 166 47 237 16 72 29 133 29 138 0 12 -51 7 -160
-19z"/>
<path d="M336 4928 c-3 -7 -7 -25 -10 -39 -6 -29 -53 -375 -58 -428 l-3 -35
90 -18 c238 -46 508 -170 785 -358 l56 -38 84 80 c47 43 102 92 124 108 21 17
61 50 88 76 l49 45 -63 60 c-35 32 -66 59 -70 59 -5 0 -25 15 -45 34 -42 37
-252 184 -298 208 -16 8 -70 39 -120 67 -49 28 -93 51 -98 51 -4 0 -50 18
-102 41 -115 49 -167 64 -276 84 -103 18 -129 19 -133 3z"/>
<path d="M2565 4544 c-61 -15 -155 -44 -285 -89 -90 -31 -289 -125 -380 -178
-36 -22 -78 -46 -94 -56 -58 -33 -252 -164 -296 -200 -25 -20 -63 -49 -85 -66
-45 -33 -85 -73 -84 -83 1 -6 116 -114 274 -256 l55 -49 37 25 c154 101 427
258 450 258 5 0 44 15 88 33 123 52 205 77 317 96 l103 17 6 137 c7 138 26
363 35 405 4 20 1 22 -38 21 -24 0 -70 -7 -103 -15z"/>
<path d="M236 4073 c-3 -21 -6 -147 -6 -279 l0 -241 63 -13 c122 -23 243 -58
327 -93 183 -76 381 -178 510 -262 37 -24 73 -45 82 -47 19 -4 325 291 312
300 -6 4 -43 34 -83 67 -125 102 -445 326 -490 343 -9 3 -27 13 -41 22 -73 50
-327 163 -431 194 -56 16 -203 46 -225 46 -6 0 -14 -17 -18 -37z"/>
<path d="M2610 3663 c-59 -10 -270 -64 -306 -79 -201 -82 -356 -162 -499 -258
-33 -22 -87 -58 -120 -79 -33 -22 -76 -53 -95 -69 -139 -115 -205 -172 -208
-177 -1 -4 30 -31 69 -61 40 -30 97 -75 128 -100 80 -65 169 -130 176 -130 4
0 32 17 63 39 153 103 397 227 546 275 66 21 194 52 305 73 23 4 23 6 17 71
-3 37 -9 165 -12 285 -8 236 -3 220 -64 210z"/>
<path d="M254 3198 c18 -135 38 -295 48 -378 11 -102 19 -120 52 -120 58 0
268 -55 401 -105 158 -59 419 -178 534 -244 l69 -39 133 135 134 134 -35 30
c-19 17 -51 39 -70 50 -19 10 -70 43 -112 72 -151 103 -418 255 -533 303 -27
11 -73 33 -102 47 -97 50 -446 157 -509 157 -12 0 -14 -9 -10 -42z"/>
<path d="M2630 2715 c-283 -58 -599 -198 -827 -367 -29 -21 -55 -38 -57 -38
-6 0 -206 -161 -206 -165 0 -1 25 -18 55 -36 31 -19 79 -49 108 -68 29 -19 97
-62 151 -96 l99 -62 41 27 c73 49 269 148 375 190 145 57 251 86 366 100 55 7
102 13 103 15 2 2 -8 54 -21 117 -14 62 -37 176 -50 253 -27 161 -20 154 -137
130z"/>
<path d="M394 2354 c3 -11 19 -73 36 -139 17 -66 46 -163 64 -215 l33 -94 94
-17 c145 -26 300 -66 422 -110 62 -22 137 -49 167 -59 30 -9 78 -28 105 -40
28 -12 104 -44 169 -71 l119 -48 31 26 c68 57 209 193 205 197 -2 3 -49 28
-104 57 -55 28 -111 59 -125 69 -67 44 -507 252 -620 293 -47 16 -89 33 -95
37 -32 23 -337 105 -464 125 -39 6 -42 5 -37 -11z"/>
<path d="M2808 1935 c-285 -45 -636 -195 -891 -383 -40 -29 -84 -60 -99 -70
-16 -9 -28 -19 -28 -22 0 -3 97 -54 215 -115 l214 -109 113 56 c206 104 420
172 607 193 68 8 125 16 128 19 3 2 0 13 -6 23 -9 19 -103 281 -133 372 -8 25
-18 46 -24 47 -5 1 -48 -4 -96 -11z"/>
<path d="M629 1638 c26 -67 58 -135 114 -244 l61 -121 150 -23 c82 -12 212
-39 290 -61 77 -22 161 -44 186 -50 25 -7 119 -36 210 -66 155 -51 261 -83
279 -83 4 0 47 34 95 75 48 41 92 75 97 75 42 0 -47 47 -246 130 -44 18 -108
46 -143 62 -34 15 -66 28 -70 28 -4 0 -74 26 -157 59 -177 69 -480 169 -544
181 -25 4 -86 17 -136 28 -49 11 -114 23 -143 27 -52 7 -52 7 -43 -17z"/>
<path d="M2955 1249 c-167 -26 -412 -107 -590 -196 -118 -60 -259 -143 -253
-148 8 -6 302 -120 367 -142 83 -28 77 -29 229 26 165 59 337 98 506 115 82 8
150 17 153 19 2 3 -18 38 -44 79 -26 41 -70 118 -98 171 l-50 97 -45 -1 c-25
0 -103 -10 -175 -20z"/>
<path d="M930 1074 c0 -10 83 -121 156 -211 l67 -82 56 -5 c178 -17 553 -90
888 -172 l181 -45 97 58 96 58 -143 46 c-531 172 -861 263 -1148 318 -176 33
-250 43 -250 35z"/>
<path d="M3385 743 c-196 -17 -438 -68 -620 -129 -143 -47 -275 -98 -275 -105
0 -7 276 -80 375 -100 79 -15 78 -15 240 15 222 42 330 56 481 63 l142 6 -82
83 c-46 45 -98 103 -117 128 -36 49 -37 49 -144 39z"/>
<path d="M1300 641 c0 -11 100 -92 174 -142 l73 -50 219 -24 c121 -13 275 -33
344 -44 210 -34 410 -61 503 -68 76 -5 99 -3 163 17 41 13 74 26 74 30 0 5
-45 15 -370 81 -85 17 -207 42 -270 55 -63 14 -155 31 -205 38 -49 8 -182 30
-295 50 -242 41 -410 64 -410 57z"/>
<path d="M1750 356 c0 -3 35 -16 78 -30 54 -17 122 -28 218 -35 233 -18 945
-53 952 -47 3 3 -6 6 -19 6 -14 0 -122 9 -240 20 -118 11 -272 25 -344 30
-109 9 -368 32 -592 55 -29 3 -53 3 -53 1z"/>
<path d="M3550 349 c-47 -4 -155 -17 -240 -28 -85 -11 -204 -25 -264 -32 -121
-15 -115 -22 29 -34 47 -4 88 -11 90 -15 3 -5 43 -8 89 -8 46 -1 101 -4 121
-8 20 -3 200 -3 401 1 l365 7 -80 38 c-44 20 -98 49 -120 63 -39 26 -45 27
-173 26 -73 -1 -171 -5 -218 -10z"/>
<path d="M4137 183 c18 -2 50 -2 70 0 21 2 7 4 -32 4 -38 0 -55 -2 -38 -4z"/>
</g>
</svg>
