<?xml version="1.0" standalone="no"?>
<!DOCTYPE svg PUBLIC "-//W3C//DTD SVG 20010904//EN"
 "http://www.w3.org/TR/2001/REC-SVG-20010904/DTD/svg10.dtd">
<svg version="1.0" xmlns="http://www.w3.org/2000/svg"
 width="704.000000pt" height="701.000000pt" viewBox="0 0 704.000000 701.000000"
 preserveAspectRatio="xMidYMid meet">

<g transform="translate(0.000000,701.000000) scale(0.100000,-0.100000)"
fill="#000000" stroke="none">
<path d="M3285 7004 c-568 -45 -1098 -211 -1573 -493 -876 -518 -1493 -1417
-1662 -2421 -37 -222 -45 -323 -45 -585 0 -262 8 -363 45 -585 67 -396 212
-803 410 -1145 363 -631 875 -1107 1532 -1424 348 -169 703 -273 1113 -328
183 -24 647 -24 830 0 508 68 970 225 1393 476 876 518 1493 1417 1662 2421
37 222 45 323 45 585 0 262 -8 363 -45 585 -67 396 -212 803 -410 1145 -363
631 -875 1107 -1532 1424 -348 169 -711 276 -1108 326 -120 16 -544 28 -655
19z m674 -159 c411 -57 817 -190 1166 -382 457 -250 849 -600 1152 -1029 186
-262 343 -579 447 -899 185 -571 212 -1199 75 -1775 -272 -1149 -1106 -2063
-2219 -2434 -734 -245 -1501 -231 -2239 42 -151 55 -458 206 -597 294 -673
423 -1157 1029 -1406 1758 -116 340 -166 626 -175 1006 -15 623 81 1048 363
1604 177 350 392 643 663 902 558 535 1296 869 2061 932 112 9 601 -4 709 -19z"/>
<path d="M3260 6573 c-515 -50 -1011 -225 -1430 -505 -201 -133 -290 -207
-471 -387 -209 -210 -351 -394 -492 -636 -327 -565 -464 -1258 -381 -1930 53
-431 206 -861 438 -1230 444 -709 1169 -1211 1990 -1380 214 -43 364 -58 606
-58 301 -1 525 28 785 99 416 115 833 328 1135 580 143 119 396 376 500 507
249 315 455 753 565 1201 43 176 53 260 60 511 8 300 -8 612 -39 760 -98 458
-285 884 -537 1217 -212 281 -517 573 -792 756 -507 339 -1083 506 -1727 500
-96 -1 -191 -3 -210 -5z m525 -657 c136 -35 232 -84 289 -147 75 -83 73 -157
-6 -238 -99 -101 -218 -147 -417 -160 -154 -10 -360 2 -438 24 -120 35 -224
104 -275 184 -47 75 -36 123 50 203 82 77 214 132 378 158 104 16 307 4 419
-24z m-1394 -443 c68 -36 91 -77 91 -156 -1 -73 -26 -150 -82 -254 -152 -283
-471 -513 -709 -513 -52 0 -56 2 -108 53 l-53 54 0 70 c0 167 86 320 291 518
135 130 225 189 354 231 96 32 155 31 216 -3z m2516 -15 c105 -38 209 -105
308 -200 178 -169 305 -395 305 -543 0 -48 -42 -112 -94 -144 -81 -51 -259 -7
-427 105 -239 159 -439 443 -439 623 0 185 121 241 347 159z m-1226 -749 c248
-25 502 -152 700 -349 487 -485 476 -1254 -24 -1727 -227 -214 -467 -318 -762
-330 -248 -10 -412 21 -597 112 -363 179 -610 505 -684 900 -22 119 -15 355
14 465 98 371 328 654 667 820 66 33 155 69 197 80 137 37 311 48 489 29z
m-2235 -618 c84 -38 144 -125 190 -276 26 -85 28 -101 28 -295 1 -168 -2 -219
-18 -280 -49 -200 -155 -330 -269 -330 -60 0 -92 16 -146 75 -113 123 -177
383 -153 619 26 245 117 432 237 487 51 23 80 23 131 0z m4300 -6 c82 -52 162
-186 190 -320 24 -117 25 -435 1 -529 -33 -131 -123 -273 -198 -311 -36 -19
-112 -19 -148 0 -72 37 -162 181 -195 312 -56 218 -36 499 49 678 40 83 125
173 176 185 41 9 96 3 125 -15z m-3934 -1634 c131 -34 249 -104 375 -224 227
-216 345 -488 270 -622 -90 -162 -400 -80 -657 174 -230 228 -332 492 -240
621 25 36 95 70 141 70 20 0 70 -9 111 -19z m3593 0 c124 -56 144 -173 62
-361 -44 -101 -99 -174 -226 -300 -191 -191 -323 -263 -481 -264 -73 -1 -91 2
-123 23 -150 93 -73 377 171 633 125 131 241 208 387 257 103 35 154 38 210
12z m-1690 -806 c190 -33 349 -125 401 -230 l28 -58 -24 -44 c-43 -81 -178
-174 -305 -209 -92 -25 -412 -31 -535 -10 -198 34 -370 160 -370 271 0 90 121
195 288 250 138 45 357 58 517 30z"/>
<path d="M3410 4109 c-126 -22 -289 -127 -376 -242 -94 -124 -118 -207 -112
-392 l3 -122 53 -106 c87 -175 208 -278 377 -322 78 -20 242 -20 320 0 248 64
429 283 451 547 7 88 -20 216 -67 315 -39 82 -137 186 -220 236 -124 73 -300
109 -429 86z"/>
</g>
</svg>
