<?xml version="1.0" standalone="no"?>
<!DOCTYPE svg PUBLIC "-//W3C//DTD SVG 20010904//EN"
 "http://www.w3.org/TR/2001/REC-SVG-20010904/DTD/svg10.dtd">
<svg version="1.0" xmlns="http://www.w3.org/2000/svg"
 width="900.000000pt" height="900.000000pt" viewBox="0 0 900.000000 900.000000"
 preserveAspectRatio="xMidYMid meet">

<g transform="translate(0.000000,900.000000) scale(0.100000,-0.100000)"
fill="#193d78" stroke="none">
<path d="M4070 8919 c-41 -5 -115 -15 -165 -22 l-90 -12 0 -55 c1 -62 23 -371
30 -412 7 -44 -29 -76 -110 -98 -90 -25 -149 -26 -173 -2 -18 18 -34 59 -128
335 l-47 138 -31 -7 c-50 -10 -181 -51 -311 -98 -99 -35 -121 -46 -123 -64 -2
-12 13 -75 33 -139 41 -130 59 -191 81 -272 14 -51 14 -56 -3 -80 -20 -28
-128 -86 -180 -97 -73 -14 -58 -34 -331 415 -9 16 -69 -14 -282 -140 -130 -78
-150 -92 -150 -107 0 -5 43 -88 95 -182 145 -262 138 -244 121 -284 -10 -23
-38 -51 -87 -85 -59 -42 -80 -51 -113 -51 -40 1 -45 6 -181 151 -77 82 -150
161 -163 174 -13 14 -26 25 -31 25 -24 0 -361 -310 -361 -332 0 -7 70 -94 155
-192 172 -198 175 -206 127 -272 -46 -63 -128 -134 -155 -134 -13 0 -55 22
-93 48 -38 27 -96 68 -129 91 -142 100 -195 133 -208 128 -15 -6 -187 -233
-251 -331 -46 -70 -64 -46 169 -221 172 -128 199 -158 188 -204 -9 -38 -71
-144 -99 -168 -29 -26 -72 -29 -117 -9 -18 8 -61 27 -97 41 -62 26 -131 55
-175 75 -118 53 -128 52 -158 -12 -67 -143 -102 -221 -134 -302 -42 -104 -58
-83 127 -169 304 -143 289 -134 296 -164 15 -60 -37 -210 -86 -245 -25 -18
-29 -18 -135 2 -61 11 -128 25 -150 30 -108 25 -217 42 -224 34 -4 -5 -20 -65
-35 -134 -15 -69 -31 -143 -37 -165 -13 -57 -30 -177 -26 -181 2 -2 33 -11 68
-19 35 -8 130 -31 211 -50 81 -19 155 -35 163 -35 9 0 27 -11 40 -25 22 -21
25 -33 25 -93 0 -85 -23 -167 -53 -186 -17 -11 -77 -15 -255 -18 -138 -3 -236
-8 -242 -14 -11 -11 -16 -467 -6 -483 3 -4 113 -11 244 -14 131 -4 246 -9 255
-12 29 -12 51 -76 55 -165 4 -75 2 -88 -17 -111 -11 -15 -31 -29 -43 -32 -23
-5 -195 -45 -313 -72 -143 -33 -130 -25 -127 -81 2 -27 17 -110 33 -184 58
-266 57 -266 108 -250 14 5 94 20 176 35 83 14 164 30 181 36 90 27 132 1 168
-109 43 -129 35 -159 -52 -199 -31 -14 -122 -57 -201 -95 -79 -37 -147 -68
-151 -68 -4 0 -13 -6 -19 -14 -15 -18 14 -95 128 -339 27 -59 56 -110 64 -112
7 -3 109 35 226 85 117 49 219 90 226 90 36 0 69 -29 106 -90 47 -80 61 -123
49 -154 -4 -12 -91 -85 -192 -161 -100 -76 -187 -142 -193 -147 -14 -13 263
-407 288 -408 5 0 38 21 75 47 37 25 124 86 193 135 152 106 167 109 236 45
65 -59 103 -115 103 -150 0 -32 -11 -47 -204 -267 l-118 -135 88 -84 c145
-137 267 -241 284 -241 8 0 89 79 178 175 188 201 188 201 282 139 72 -47 107
-80 118 -114 11 -31 7 -41 -130 -288 -49 -89 -88 -169 -85 -176 7 -19 233
-156 375 -228 26 -14 45 -18 51 -12 5 5 59 92 120 194 61 102 123 196 138 209
34 30 68 25 171 -26 113 -56 114 -58 57 -245 -26 -84 -57 -190 -70 -236 l-24
-83 42 -18 c23 -10 80 -30 127 -45 47 -15 94 -31 105 -36 65 -27 205 -59 205
-47 0 2 25 76 56 163 30 87 65 188 77 223 16 48 30 69 52 83 32 20 49 20 150
-5 82 -20 94 -26 108 -53 12 -23 11 -44 -19 -420 -5 -62 -4 -83 6 -89 24 -15
451 -61 475 -51 7 2 15 28 18 58 32 263 55 427 62 437 14 23 78 41 145 41 77
0 133 -19 151 -51 9 -17 43 -272 56 -422 3 -32 11 -61 17 -63 18 -7 340 23
454 42 32 5 32 5 32 62 0 31 -7 120 -15 197 -8 77 -15 166 -15 197 0 53 2 59
33 81 28 21 75 35 179 54 18 3 37 -2 56 -16 31 -21 41 -45 148 -358 33 -96 41
-113 59 -113 26 0 115 27 290 87 72 25 138 47 148 50 9 3 17 9 17 14 0 8 -60
213 -113 384 -13 43 -22 87 -19 97 8 32 49 63 128 97 127 54 123 57 271 -189
68 -113 128 -206 133 -208 9 -3 81 33 220 111 41 23 191 117 204 128 5 4 -3
27 -16 51 -14 24 -45 79 -68 123 -24 44 -46 85 -50 90 -28 37 -90 167 -90 187
0 35 22 60 95 113 66 47 120 65 148 49 8 -5 83 -83 167 -174 84 -91 160 -166
169 -168 22 -3 294 232 360 312 10 12 -7 37 -116 162 -175 201 -193 224 -193
249 0 29 51 104 105 154 71 66 79 63 304 -94 106 -74 197 -135 201 -135 16 0
290 376 290 398 0 5 -80 69 -177 143 -97 73 -185 141 -195 151 -27 27 -22 73
15 145 35 70 86 123 118 123 17 0 69 -20 184 -70 146 -64 259 -110 269 -110
19 0 206 402 206 442 0 8 -85 53 -202 108 -206 94 -258 129 -258 173 0 41 53
180 77 205 28 28 45 27 223 -8 193 -38 280 -52 294 -47 7 3 16 16 19 29 3 13
15 64 26 113 55 232 70 333 50 339 -63 18 -109 29 -204 51 -245 55 -256 58
-276 83 -35 45 -18 221 26 262 21 20 36 21 267 27 l245 6 7 129 c7 142 -2 360
-16 369 -5 3 -112 7 -239 8 -157 1 -237 6 -250 14 -30 19 -49 69 -55 151 -8
88 5 129 44 145 15 5 68 19 117 31 50 11 104 24 120 29 17 5 48 12 70 16 22 3
66 13 99 22 l58 16 -6 51 c-12 101 -82 415 -95 429 -8 8 -100 -8 -423 -72 -61
-13 -80 -8 -109 26 -20 22 -69 162 -69 196 0 24 34 77 50 77 4 0 55 22 112 49
56 27 147 69 201 95 53 25 97 51 97 58 0 32 -177 429 -196 441 -5 3 -104 -35
-219 -84 -119 -50 -225 -88 -243 -89 -25 0 -41 8 -60 28 -39 42 -92 150 -92
188 0 39 12 50 234 214 85 63 155 120 156 125 1 30 -267 394 -290 395 -16 0
-67 -34 -262 -173 -59 -41 -116 -81 -128 -87 -38 -20 -76 -2 -143 70 -75 78
-88 115 -60 160 14 23 193 234 286 338 l21 22 -40 41 c-57 60 -321 289 -332
289 -5 0 -83 -79 -173 -175 -195 -209 -191 -207 -310 -126 -40 27 -78 60 -85
73 -17 30 -17 69 0 93 7 11 44 76 81 145 111 205 117 215 126 225 16 16 10 24
-49 64 -63 42 -359 211 -370 211 -4 -1 -54 -80 -112 -177 -149 -249 -152 -253
-199 -253 -44 0 -164 50 -198 82 -29 27 -29 73 -2 153 11 33 34 105 50 160 16
55 36 124 46 153 10 32 13 56 7 61 -9 10 -252 93 -382 131 -44 13 -77 19 -83
13 -5 -5 -43 -108 -84 -228 -86 -252 -91 -260 -170 -252 -96 11 -149 27 -177
54 -34 32 -35 60 -13 268 8 77 15 167 15 201 l0 60 -97 13 c-176 22 -293 32
-346 29 l-51 -3 -13 -95 c-6 -52 -19 -158 -27 -235 -16 -135 -17 -141 -47
-168 -31 -28 -33 -29 -135 -25 -128 4 -142 14 -155 109 -4 35 -15 120 -24 189
-9 69 -19 148 -23 175 l-7 50 -80 1 c-44 1 -114 -2 -155 -7z m860 -638 c788
-87 1539 -421 2130 -950 870 -778 1334 -1892 1271 -3050 -63 -1153 -625 -2190
-1561 -2882 -387 -286 -879 -516 -1335 -624 -372 -88 -475 -99 -910 -99 -394
-1 -479 7 -770 66 -1401 284 -2552 1368 -2919 2748 -282 1061 -101 2190 498
3090 295 444 674 820 1121 1111 511 334 1134 547 1750 598 133 12 593 6 725
-8z"/>
<path d="M4200 8209 c-372 -31 -777 -131 -1125 -279 -454 -193 -839 -453
-1191 -804 -314 -315 -525 -609 -719 -1001 -228 -463 -342 -905 -376 -1457
-28 -445 44 -960 196 -1398 341 -984 1075 -1784 2025 -2208 264 -118 590 -216
865 -261 233 -38 258 -41 448 -51 643 -34 1267 93 1842 376 958 470 1677 1337
1959 2360 75 271 111 495 128 793 47 823 -181 1638 -651 2321 -238 346 -563
677 -906 923 -550 393 -1199 632 -1870 687 -141 11 -476 11 -625 -1z m617
-240 c362 -30 758 -130 1088 -274 908 -396 1607 -1152 1926 -2082 199 -583
241 -1221 118 -1827 -254 -1256 -1204 -2295 -2428 -2656 -191 -56 -299 -79
-561 -120 -219 -34 -653 -31 -910 6 -803 114 -1512 479 -2061 1058 -530 558
-852 1248 -944 2021 -21 172 -24 549 -6 720 45 438 153 817 346 1210 478 975
1393 1679 2455 1889 111 22 311 50 425 59 98 8 435 6 552 -4z"/>
<path d="M4208 7890 c-438 -46 -816 -154 -1203 -345 -497 -245 -919 -604
-1256 -1065 -245 -336 -439 -750 -539 -1150 -173 -690 -137 -1376 106 -2033
367 -993 1186 -1769 2194 -2080 851 -263 1749 -188 2545 213 419 210 731 455
1076 845 262 296 536 795 657 1200 50 165 60 204 86 340 51 267 60 371 60 675
0 243 -3 308 -23 440 -36 247 -68 387 -143 619 -247 761 -771 1423 -1469 1854
-265 163 -614 312 -906 386 -339 85 -471 102 -823 106 -151 2 -314 -1 -362 -5z
m572 -895 c590 -62 1124 -318 1537 -737 399 -405 641 -905 714 -1478 15 -119
15 -475 0 -595 -148 -1167 -1054 -2073 -2211 -2212 -194 -23 -551 -13 -735 20
-412 75 -791 244 -1115 496 -120 93 -318 288 -413 406 -276 344 -444 717 -529
1175 -20 112 -23 155 -23 410 0 231 3 305 18 390 130 746 533 1358 1152 1750
471 299 1049 434 1605 375z"/>
<path d="M4286 6919 c-231 -20 -496 -88 -718 -183 -545 -234 -975 -639 -1237
-1167 -195 -393 -275 -789 -250 -1237 35 -606 305 -1191 744 -1611 363 -347
780 -559 1285 -653 112 -20 154 -23 410 -23 251 0 299 3 405 23 256 47 451
110 670 217 396 194 720 481 984 874 24 35 76 127 116 205 135 262 213 512
256 816 16 115 16 482 0 600 -55 396 -180 736 -389 1050 -505 761 -1361 1170
-2276 1089z m450 -80 c533 -52 1006 -264 1395 -625 589 -546 859 -1350 720
-2139 -41 -236 -99 -414 -205 -630 -291 -592 -804 -1032 -1431 -1225 -394
-122 -843 -135 -1255 -36 -160 38 -299 89 -475 175 -248 122 -439 257 -627
443 -417 415 -662 955 -696 1539 -13 221 0 417 42 620 98 468 333 893 678
1224 384 368 853 590 1378 650 145 16 335 18 476 4z"/>
<path d="M4260 6595 c-481 -60 -914 -277 -1255 -627 -241 -247 -392 -492 -499
-810 -213 -630 -115 -1333 261 -1878 217 -313 485 -543 828 -710 311 -152 568
-210 925 -210 279 0 487 35 721 121 662 243 1152 777 1338 1459 49 180 64 313
64 545 0 191 -4 239 -26 367 -85 478 -347 937 -712 1245 -337 285 -740 459
-1165 503 -128 13 -352 11 -480 -5z m549 -50 c488 -72 925 -305 1253 -670 279
-311 453 -686 513 -1107 19 -134 19 -432 0 -566 -97 -682 -511 -1264 -1120
-1574 -293 -149 -588 -218 -930 -218 -337 0 -603 60 -901 205 -558 270 -971
787 -1113 1392 -70 300 -70 656 0 956 62 266 188 539 346 753 341 459 835 752
1408 833 106 15 428 12 544 -4z"/>
<path d="M4405 8820 c-5 -9 15 -200 33 -300 l7 -45 77 -3 77 -3 6 33 c6 35 35
294 35 316 0 15 -225 18 -235 2z"/>
<path d="M3635 8737 c-127 -31 -130 -33 -127 -53 7 -35 94 -283 105 -298 10
-14 21 -14 77 -5 36 6 68 14 72 18 7 6 -5 208 -18 309 -5 40 -7 42 -37 41 -18
-1 -50 -6 -72 -12z"/>
<path d="M5296 8673 c-3 -43 -10 -118 -15 -168 -6 -65 -6 -93 3 -101 6 -6 38
-16 71 -23 46 -9 62 -8 71 1 13 15 118 317 112 323 -6 6 -190 45 -214 45 -19
0 -22 -7 -28 -77z"/>
<path d="M2753 8453 c-57 -25 -103 -50 -103 -55 0 -5 38 -74 85 -154 58 -97
91 -144 103 -144 20 0 117 44 125 57 8 13 -89 343 -101 342 -4 0 -53 -21 -109
-46z"/>
<path d="M6177 8492 c-11 -19 -88 -267 -93 -302 l-7 -40 58 -25 c68 -30 83
-29 104 7 9 15 46 78 84 141 37 63 67 119 67 124 0 5 -33 25 -72 43 -116 53
-137 60 -141 52z"/>
<path d="M1966 7998 c-47 -35 -86 -69 -86 -75 0 -16 218 -247 237 -251 14 -4
109 64 116 82 6 15 -155 306 -169 306 -6 0 -50 -28 -98 -62z"/>
<path d="M6957 8038 c-44 -72 -147 -267 -147 -279 1 -17 92 -89 113 -89 17 0
249 249 242 260 -8 13 -175 130 -185 130 -5 0 -16 -10 -23 -22z"/>
<path d="M1296 7396 c-42 -46 -76 -88 -76 -94 0 -10 193 -150 258 -188 l34
-19 49 53 c27 29 49 57 49 60 0 7 -228 272 -234 272 -2 0 -38 -38 -80 -84z"/>
<path d="M7548 7345 c-60 -68 -108 -129 -108 -135 0 -18 84 -110 100 -109 26
1 275 184 275 202 0 20 -131 167 -148 167 -7 0 -60 -56 -119 -125z"/>
<path d="M757 6653 c-31 -53 -53 -101 -49 -105 16 -16 314 -138 323 -132 15 9
69 107 68 124 0 16 -238 199 -267 207 -13 3 -32 -21 -75 -94z"/>
<path d="M8072 6649 c-107 -81 -132 -104 -127 -120 9 -27 55 -108 65 -114 9
-5 307 118 322 133 10 10 -96 196 -114 200 -8 1 -73 -43 -146 -99z"/>
<path d="M427 5932 c-15 -26 -68 -205 -64 -216 3 -7 55 -22 129 -36 67 -12
141 -26 163 -31 28 -6 43 -4 51 4 13 13 44 103 44 124 0 8 -54 40 -127 75
-165 77 -192 88 -196 80z"/>
<path d="M8560 5919 c-19 -10 -88 -43 -152 -73 -65 -30 -118 -59 -118 -64 0
-15 40 -126 48 -133 4 -4 63 4 132 17 69 13 144 27 168 30 37 6 42 10 41 33 0
34 -62 204 -74 207 -6 1 -26 -6 -45 -17z"/>
<path d="M215 5047 c-7 -21 -24 -220 -20 -228 7 -10 338 2 353 14 7 6 12 35
12 77 l0 67 -62 17 c-35 9 -94 23 -133 31 -38 8 -87 19 -108 24 -27 7 -39 6
-42 -2z"/>
<path d="M8705 5033 c-245 -59 -227 -48 -219 -130 4 -38 12 -71 18 -75 6 -4
70 -8 141 -9 72 -1 144 -3 162 -5 18 -2 35 1 38 6 10 16 -17 240 -29 239 -6
-1 -56 -13 -111 -26z"/>
<path d="M196 4142 c-3 -5 -1 -49 4 -98 5 -49 10 -100 10 -113 0 -22 3 -23 43
-17 23 4 56 11 72 16 17 5 75 20 130 33 l100 24 3 61 c5 104 9 102 -188 102
-93 0 -171 -4 -174 -8z"/>
<path d="M8503 4142 c-6 -4 -13 -40 -15 -81 l-3 -74 80 -19 c44 -11 115 -28
157 -39 43 -10 84 -19 91 -19 10 0 17 27 26 100 6 56 11 110 11 120 0 19 -8
20 -167 20 -93 0 -173 -4 -180 -8z"/>
<path d="M565 3299 c-49 -10 -116 -24 -147 -30 -32 -6 -58 -16 -58 -23 0 -29
62 -208 74 -212 7 -3 71 23 141 56 71 34 139 66 152 71 28 10 29 28 4 99 -23
66 -31 68 -166 39z"/>
<path d="M8311 3256 c-20 -59 -20 -96 -1 -96 5 0 71 -29 148 -65 78 -36 145
-65 150 -65 9 0 72 184 72 212 0 11 -11 19 -32 23 -18 3 -51 10 -73 15 -74 17
-202 40 -222 40 -16 0 -25 -14 -42 -64z"/>
<path d="M861 2486 c-80 -34 -146 -67 -149 -74 -4 -12 66 -145 96 -183 l18
-22 137 103 c75 57 137 110 137 118 0 25 -64 122 -80 121 -8 0 -80 -29 -159
-63z"/>
<path d="M7972 2491 c-18 -32 -30 -65 -27 -72 6 -14 251 -202 270 -207 15 -4
130 197 119 207 -14 13 -299 131 -315 131 -8 0 -29 -27 -47 -59z"/>
<path d="M1464 1843 c-180 -125 -224 -156 -234 -168 -10 -12 -4 -24 28 -62 22
-27 58 -65 80 -86 l40 -39 41 44 c22 25 51 58 63 74 13 16 26 30 30 32 14 7
88 110 88 123 0 8 -22 36 -48 62 l-48 48 -40 -28z"/>
<path d="M7486 1820 c-25 -27 -46 -54 -46 -61 0 -20 218 -271 231 -267 14 6
149 162 149 173 0 10 -270 205 -283 205 -2 0 -25 -22 -51 -50z"/>
<path d="M1996 1176 c-64 -68 -116 -129 -116 -134 0 -6 41 -41 91 -78 l91 -68
17 22 c9 12 27 43 41 69 14 27 44 82 67 123 24 41 43 84 43 95 0 13 -19 33
-54 58 -30 20 -56 37 -59 37 -2 0 -56 -56 -121 -124z"/>
<path d="M6869 1262 c-30 -21 -55 -44 -57 -53 -2 -12 142 -287 161 -306 5 -5
153 94 191 128 5 5 -12 31 -39 61 -132 143 -181 195 -191 201 -6 3 -35 -10
-65 -31z"/>
<path d="M2787 803 c-86 -134 -140 -234 -130 -244 9 -9 191 -89 204 -89 9 0
22 36 59 165 17 61 36 120 41 133 5 13 9 27 9 32 0 8 -118 70 -133 70 -4 0
-27 -30 -50 -67z"/>
<path d="M6142 843 c-29 -14 -56 -32 -59 -40 -6 -16 -1 -37 54 -211 19 -62 39
-114 43 -117 16 -10 210 78 210 96 0 14 -160 282 -174 291 -14 10 -12 10 -74
-19z"/>
<path d="M3611 583 c-11 -23 -98 -281 -103 -307 -2 -17 7 -22 57 -33 126 -27
167 -34 173 -29 8 9 31 340 24 348 -6 5 -124 38 -137 38 -3 0 -8 -8 -14 -17z"/>
<path d="M5338 583 c-31 -8 -58 -20 -60 -26 -2 -7 -1 -48 3 -92 4 -44 10 -120
15 -168 l7 -88 41 6 c23 4 66 13 96 21 30 8 62 14 72 14 9 0 19 4 23 10 6 10
-91 306 -108 328 -11 14 -14 14 -89 -5z"/>
<path d="M4454 492 c-6 -4 -14 -27 -18 -52 -7 -45 -35 -278 -36 -293 0 -4 55
-6 123 -5 102 3 121 5 119 18 -2 8 -10 78 -18 155 -20 188 -18 185 -96 185
-35 0 -68 -4 -74 -8z"/>
</g>
</svg>
