<?xml version="1.0" standalone="no"?>
<!DOCTYPE svg PUBLIC "-//W3C//DTD SVG 20010904//EN"
 "http://www.w3.org/TR/2001/REC-SVG-20010904/DTD/svg10.dtd">
<svg version="1.0" xmlns="http://www.w3.org/2000/svg"
 width="1920.000000pt" height="1920.000000pt" viewBox="0 0 1920.000000 1920.000000"
 preserveAspectRatio="xMidYMid meet">

<g transform="translate(0.000000,1920.000000) scale(0.100000,-0.100000)"
fill="#000000" stroke="none">
<path d="M8914 18408 c-90 -174 -326 -346 -635 -461 -191 -72 -596 -172 -780
-193 l-54 -6 -210 117 c-115 64 -228 127 -250 140 l-40 23 -685 -328 -685
-329 -18 -193 c-11 -111 -24 -198 -30 -204 -7 -7 -109 -78 -227 -160 -269
-184 -541 -382 -673 -487 l-101 -81 -213 -17 c-250 -21 -394 -46 -535 -95
-313 -109 -513 -304 -613 -599 -34 -101 -55 -237 -64 -412 -11 -202 -33 -297
-101 -441 -140 -294 -374 -549 -860 -937 -370 -295 -614 -571 -756 -855 -79
-157 -122 -309 -139 -492 l-7 -67 183 -211 182 -211 -7 -117 c-27 -450 -142
-787 -398 -1167 -253 -376 -357 -599 -394 -846 -14 -99 -14 -113 11 -344 37
-349 25 -310 103 -334 201 -62 347 -223 435 -481 37 -109 271 -1088 293 -1226
6 -41 6 -42 -170 -274 l-177 -232 243 -571 244 -572 65 -6 c282 -29 610 -303
919 -766 152 -229 241 -425 276 -610 22 -117 15 -300 -15 -393 l-20 -65 22
-21 c44 -42 865 -743 883 -754 15 -9 55 -6 182 14 90 14 175 26 189 26 47 0
418 -262 1183 -835 294 -221 598 -447 676 -502 277 -199 661 -453 684 -453 5
0 116 65 246 145 183 113 243 145 269 145 64 0 409 -50 580 -85 570 -114 905
-300 990 -548 l19 -57 637 0 636 0 29 41 c38 56 152 160 235 215 214 142 519
260 904 349 167 38 414 85 450 85 13 0 140 -54 281 -120 l257 -119 541 211
c298 116 547 213 554 215 6 3 12 20 12 37 0 18 9 67 19 109 94 364 520 743
1303 1156 l136 72 79 -22 c54 -15 120 -23 215 -26 119 -5 145 -3 205 15 248
76 449 323 603 742 233 630 416 1085 485 1205 204 354 453 550 769 607 l70 13
57 103 c111 201 274 577 415 960 35 95 64 179 64 186 0 8 -61 103 -135 212
-152 223 -144 198 -120 385 64 491 175 860 328 1097 64 99 168 205 252 257 85
53 71 -2 111 440 18 199 24 318 20 380 -26 371 -127 638 -347 916 -141 179
-216 313 -283 508 -61 174 -94 375 -97 578 -2 108 0 116 29 175 17 35 65 106
107 158 42 52 90 124 108 160 30 60 32 70 29 154 -13 429 -279 861 -797 1294
-222 185 -325 281 -431 405 -299 348 -448 710 -472 1146 l-7 127 -460 434
c-253 238 -476 448 -495 466 l-36 34 -197 -57 -198 -56 -146 74 c-506 255
-829 493 -979 718 -65 98 -86 165 -93 300 l-6 115 -160 83 c-203 105 -481 229
-799 356 l-249 99 -291 -112 -291 -112 -55 12 c-101 23 -344 91 -485 137 -455
148 -778 327 -896 500 l-30 43 -694 0 -694 0 -17 -32z m1658 -968 c209 -382
499 -911 643 -1175 l263 -480 -126 -3 c-492 -11 -956 242 -1303 710 -69 93
-63 83 -334 598 -115 217 -277 523 -360 680 -84 157 -162 304 -174 328 l-21
42 515 -2 516 -3 381 -695z m-3556 194 c186 -134 618 -484 1403 -1138 462
-384 561 -471 545 -477 -10 -4 -89 -24 -174 -45 -85 -20 -261 -66 -390 -101
-273 -73 -410 -102 -535 -110 l-90 -5 -75 50 c-186 125 -644 516 -1414 1206
-148 132 -285 255 -304 271 l-34 30 174 69 c565 223 779 305 804 306 7 0 47
-25 90 -56z m5636 -123 c250 -75 594 -188 703 -230 35 -13 52 -26 57 -42 9
-29 209 -2681 203 -2687 -2 -3 -98 65 -212 151 -244 182 -537 391 -645 462
l-77 50 -41 170 c-140 580 -227 1175 -259 1775 -19 351 -20 430 -6 430 7 0
132 -36 277 -79z m-7262 -1856 c657 -207 1198 -380 1202 -384 4 -4 -56 -57
-135 -117 -356 -278 -565 -422 -730 -505 -82 -41 -108 -49 -153 -49 -103 0
-527 118 -1779 497 -264 80 -486 148 -493 152 -21 12 530 571 731 743 l78 66
42 -13 c23 -7 580 -182 1237 -390z m10327 -212 c61 -68 129 -147 151 -176 l41
-53 -49 -154 c-27 -85 -198 -636 -380 -1225 -183 -588 -336 -1074 -340 -1078
-5 -6 -659 934 -724 1041 -4 7 150 462 376 1107 l383 1095 215 -217 c119 -120
266 -273 327 -340z m-5735 -223 c1196 -81 2216 -489 3118 -1248 155 -131 563
-538 693 -692 700 -831 1111 -1749 1251 -2792 44 -329 51 -444 50 -848 0 -389
-9 -542 -50 -820 -142 -985 -537 -1856 -1193 -2630 -129 -152 -416 -447 -566
-580 -546 -487 -1102 -827 -1741 -1063 -397 -147 -870 -252 -1344 -299 -208
-20 -939 -17 -1145 5 -859 93 -1592 332 -2293 749 -686 407 -1340 1003 -1789
1629 -524 732 -817 1523 -914 2469 -17 170 -23 714 -10 905 52 758 225 1415
542 2055 241 488 522 896 915 1330 1008 1112 2230 1725 3644 1829 168 12 655
13 832 1z m-5202 -1517 c0 -5 -19 -42 -41 -83 -350 -643 -1007 -991 -2049
-1086 -168 -15 -935 -32 -963 -21 -35 13 102 396 280 787 42 91 76 166 77 167
3 4 1092 174 1236 193 319 42 430 48 953 49 279 0 507 -2 507 -6z m12361 -406
c56 -38 125 -134 188 -261 89 -184 284 -644 278 -658 -5 -11 -1681 -2055
-1707 -2082 -14 -14 -25 21 -106 339 -40 160 -87 340 -103 401 -38 143 -61
273 -61 351 0 60 2 66 66 160 123 182 454 609 951 1226 152 188 312 388 357
444 44 56 86 102 92 102 6 1 26 -9 45 -22z m-14172 -2335 c8 -23 13 -43 10
-45 -5 -4 -1628 -807 -1647 -814 -10 -4 -13 4 -10 32 l3 39 805 417 c443 230
809 416 814 415 5 -1 16 -21 25 -44z m-56 -590 c-41 -90 -234 -242 -503 -397
-63 -37 -334 -176 -602 -311 l-488 -244 0 282 1 283 802 382 802 381 3 -169
c2 -143 0 -176 -15 -207z m15030 -1293 c-8 -7 -2252 -1119 -2259 -1119 -8 0
-4 277 6 392 31 368 150 630 399 879 182 181 265 230 741 439 217 96 557 246
755 335 l360 161 3 -540 c1 -297 -1 -543 -5 -547z m-14610 -131 c14 -114 80
-461 117 -618 45 -185 85 -319 137 -463 32 -87 34 -100 21 -115 -8 -9 -369
-426 -803 -925 l-788 -908 -47 143 c-26 79 -80 220 -120 313 -104 246 -182
454 -188 501 -2 25 1 52 11 70 27 52 247 342 493 649 368 459 1145 1404 1155
1405 3 0 9 -24 12 -52z m14202 -1890 c-2 -7 -27 -94 -55 -193 -102 -360 -230
-713 -283 -778 -21 -25 -34 -29 -192 -52 -264 -38 -1232 -162 -1405 -179 -85
-9 -222 -20 -305 -26 -157 -10 -765 -14 -765 -5 0 3 43 61 95 128 192 245 398
571 500 789 28 59 55 108 60 108 6 1 514 50 1130 109 616 60 1143 109 1172
110 38 1 51 -2 48 -11z m-13332 -650 c107 -145 269 -366 361 -491 l167 -229
-352 -1121 c-193 -617 -355 -1128 -358 -1134 -8 -15 -120 56 -257 162 -125 96
-343 319 -447 456 l-87 115 258 845 c142 464 315 1027 383 1251 68 224 127
408 131 408 3 0 94 -118 201 -262z m10681 -1833 c599 -201 1090 -366 1091
-367 7 -8 -520 -547 -588 -602 -84 -69 -172 -120 -226 -131 -29 -6 -248 55
-1263 351 -675 198 -1228 361 -1228 364 1 14 1100 750 1119 750 3 0 496 -164
1095 -365z m-9111 83 c282 -161 516 -303 708 -430 177 -116 198 -132 203 -161
3 -18 26 -194 50 -392 114 -912 156 -1382 156 -1758 l0 -188 -47 6 c-435 58
-699 229 -867 563 -120 239 -177 594 -206 1292 -17 401 -38 641 -76 850 -14
81 -55 245 -69 283 -4 9 -4 17 -1 17 4 0 71 -37 149 -82z m5710 -984 c156 -79
392 -271 831 -675 290 -266 932 -887 924 -894 -2 -1 -145 -58 -318 -125 -340
-132 -568 -226 -586 -241 -14 -11 -55 19 -379 280 -455 367 -1729 1417 -1733
1430 -1 4 32 11 75 14 107 8 289 48 493 108 207 60 358 97 465 114 128 21 169
18 228 -11z m-3068 -9 c358 -63 673 -323 934 -773 47 -82 260 -519 501 -1032
230 -490 244 -520 238 -525 -17 -17 -245 -57 -384 -67 -142 -10 -171 -10 -250
5 -294 57 -566 309 -815 755 -58 104 -809 1584 -809 1595 0 5 199 44 260 50
89 10 245 6 325 -8z"/>
<path d="M10047 18024 l-28 -15 60 -112 c33 -62 231 -431 439 -822 l379 -710
47 -3 c25 -2 46 -1 46 1 0 17 -894 1677 -903 1677 -7 -1 -25 -8 -40 -16z"/>
<path d="M9350 18023 c0 -5 185 -368 410 -808 l409 -800 272 -3 c150 -1 276 1
280 5 19 19 -408 867 -754 1501 l-62 112 -277 0 c-153 0 -278 -3 -278 -7z"/>
<path d="M6839 17546 l-27 -43 777 -590 776 -591 27 32 c15 17 26 36 25 41 -4
11 -1535 1195 -1546 1195 -3 0 -18 -20 -32 -44z"/>
<path d="M6571 17430 c-43 -16 -357 -173 -370 -186 -2 -2 9 -14 25 -26 48 -38
153 -137 495 -468 179 -173 361 -340 405 -372 154 -110 296 -173 444 -198 93
-16 171 -9 338 30 72 17 141 30 154 30 56 0 64 -8 -337 342 -463 403 -742 634
-925 765 -140 100 -159 107 -229 83z"/>
<path d="M12500 17419 c0 -81 114 -1179 131 -1263 64 -316 199 -526 399 -624
47 -23 98 -44 114 -48 l28 -7 -6 49 c-3 27 -40 423 -81 879 -41 457 -77 849
-80 872 l-6 42 -79 31 c-101 38 -254 77 -347 88 l-73 8 0 -27z"/>
<path d="M13147 17082 c54 -523 130 -1108 193 -1486 22 -132 40 -243 40 -248
0 -4 4 -8 9 -8 13 0 5 773 -9 966 -28 376 -90 648 -185 820 -59 105 -63 101
-48 -44z"/>
<path d="M4110 15853 l0 -38 868 -249 c477 -137 873 -251 880 -254 10 -3 12 7
10 44 l-3 49 -855 237 c-470 130 -865 239 -877 242 -21 6 -23 3 -23 -31z"/>
<path d="M3815 15597 c-146 -126 -300 -275 -291 -284 3 -3 45 -16 93 -29 128
-33 380 -110 736 -226 603 -195 788 -246 849 -234 48 9 135 68 280 188 70 58
139 115 155 126 21 16 25 22 13 26 -45 17 -1700 536 -1707 536 -4 0 -62 -47
-128 -103z"/>
<path d="M14958 14990 l-273 -820 32 -63 c18 -34 73 -109 123 -167 50 -58 108
-131 129 -162 31 -46 41 -54 46 -40 16 38 478 1425 516 1550 l42 134 -20 42
c-24 48 -196 242 -270 304 l-51 42 -274 -820z"/>
<path d="M15425 14418 c-131 -480 -240 -881 -243 -891 -4 -16 1 -18 33 -15 36
3 39 6 51 49 8 25 120 419 249 875 130 456 237 835 240 842 3 8 -9 12 -43 12
l-48 0 -239 -872z"/>
<path d="M3280 13519 c-47 -9 -254 -43 -460 -74 -206 -31 -427 -65 -490 -76
-130 -21 -137 -21 280 11 475 36 926 61 1320 73 65 2 33 8 -230 45 -168 23
-312 42 -320 41 -8 -1 -53 -10 -100 -20z"/>
<path d="M3765 13293 c-755 -51 -1702 -140 -1745 -163 -8 -5 -30 -44 -49 -87
-19 -43 -72 -154 -117 -247 l-83 -168 287 5 c318 5 434 19 719 91 528 133 870
282 1031 448 52 53 92 105 92 121 0 7 -33 7 -135 0z"/>
<path d="M17045 13057 c-81 -97 -354 -440 -495 -622 -63 -82 -166 -214 -229
-294 -144 -185 -268 -371 -277 -416 -14 -78 29 -253 97 -387 30 -60 32 -62 48
-42 9 11 93 107 187 214 482 550 802 944 898 1104 22 36 36 73 36 92 0 30
-155 359 -192 406 -12 16 -19 10 -73 -55z"/>
<path d="M17318 12393 c-24 -32 -288 -364 -587 -738 l-542 -679 23 -18 c13
-10 30 -23 38 -28 13 -7 131 136 590 712 316 396 581 730 589 740 12 18 11 23
-15 44 -16 13 -34 23 -40 24 -6 0 -31 -26 -56 -57z"/>
<path d="M17335 9721 c-302 -152 -574 -291 -603 -309 -237 -143 -376 -272
-445 -412 -30 -61 -32 -71 -32 -175 0 -75 5 -120 15 -142 l15 -32 805 412 805
413 3 254 c1 139 -1 257 -5 261 -5 4 -255 -117 -558 -270z"/>
<path d="M17035 8901 l-750 -418 -3 -36 c-2 -20 -1 -37 2 -37 3 0 335 175 738
389 403 213 752 398 775 410 l42 21 -17 45 c-9 25 -21 45 -27 44 -5 0 -347
-188 -760 -418z"/>
<path d="M2340 7629 c-325 -408 -590 -742 -588 -743 2 -2 19 -14 38 -28 l35
-26 585 743 c321 408 586 747 587 752 2 5 -12 17 -31 26 l-35 16 -591 -740z"/>
<path d="M3009 7909 c-105 -67 -318 -293 -610 -644 -150 -181 -340 -408 -422
-503 -82 -95 -146 -179 -144 -186 10 -26 251 -416 257 -415 6 1 400 412 511
534 286 315 491 576 564 719 44 85 47 95 42 151 -3 37 -22 107 -50 180 -24 66
-48 139 -52 163 -4 23 -12 42 -19 42 -7 0 -42 -19 -77 -41z"/>
<path d="M16600 6900 c-262 -24 -647 -160 -865 -305 -96 -63 -208 -178 -249
-254 l-29 -54 124 7 c226 12 711 26 920 26 313 0 689 12 689 22 0 23 119 327
171 437 32 68 59 125 59 127 0 7 -736 1 -820 -6z"/>
<path d="M16120 6190 c-348 -18 -626 -79 -800 -176 l-45 -25 370 5 c374 5 523
15 805 56 161 24 450 81 575 114 l90 24 -316 1 c-174 1 -363 3 -420 5 -57 2
-174 1 -259 -4z"/>
<path d="M3901 5948 c-5 -13 -122 -421 -261 -908 -139 -487 -255 -891 -257
-897 -4 -9 7 -13 34 -13 l39 0 268 906 c147 499 270 913 273 920 4 11 -6 14
-41 14 -39 0 -48 -4 -55 -22z"/>
<path d="M4102 5710 c-6 -19 -86 -283 -177 -587 -91 -303 -204 -677 -251 -830
-48 -153 -92 -295 -98 -317 -9 -34 -8 -43 15 -85 17 -29 49 -63 90 -93 35 -26
112 -83 171 -127 59 -44 110 -76 112 -73 6 10 359 1087 456 1392 45 140 82
267 82 282 2 50 -65 140 -228 307 l-161 165 -11 -34z"/>
<path d="M14112 4626 c-75 -19 -188 -77 -279 -145 -88 -65 -191 -157 -183
-163 3 -3 176 -58 385 -123 554 -171 1104 -348 1230 -395 69 -26 119 -39 133
-35 13 3 47 27 74 53 62 57 262 322 251 332 -17 16 -1186 397 -1409 460 -119
33 -126 34 -202 16z"/>
<path d="M13490 4149 c0 -37 2 -39 48 -52 67 -21 1643 -518 1659 -524 10 -4
13 7 13 43 l0 49 -658 199 c-361 110 -748 228 -859 262 l-203 62 0 -39z"/>
<path d="M5913 3210 l150 -900 44 0 c34 0 43 4 43 18 0 9 -66 414 -146 900
l-147 882 -47 0 -47 0 150 -900z"/>
<path d="M6085 3823 c3 -26 39 -417 80 -868 41 -451 77 -843 80 -871 l6 -51
86 -7 c108 -9 251 -45 354 -90 68 -29 81 -32 86 -19 8 21 -5 434 -17 535 -46
379 -235 934 -400 1172 -64 93 -160 186 -228 220 l-53 27 6 -48z"/>
<path d="M11570 3224 c-107 -21 -360 -108 -360 -125 0 -4 128 -120 285 -257
491 -430 839 -721 995 -831 73 -51 77 -53 130 -48 30 3 84 17 120 31 77 32
310 157 310 167 0 11 -729 658 -851 756 -163 130 -275 208 -374 260 -78 40
-98 47 -160 49 -38 1 -81 0 -95 -2z"/>
<path d="M10876 3047 c-14 -19 -26 -36 -26 -40 0 -3 332 -270 737 -593 l737
-587 28 33 c15 19 28 37 27 40 0 3 -308 250 -685 550 -377 300 -709 564 -739
588 l-54 43 -25 -34z"/>
<path d="M8303 3053 c-13 -2 -23 -7 -23 -11 0 -4 209 -378 464 -832 l464 -825
41 1 c22 0 44 4 48 7 5 6 -202 371 -859 1517 -46 80 -90 145 -98 146 -8 1 -25
-1 -37 -3z"/>
<path d="M8531 2988 c6 -13 205 -377 441 -810 l430 -788 250 0 c201 0 249 3
246 13 -3 12 -219 437 -637 1252 l-179 350 -281 3 -282 2 12 -22z"/>
</g>
</svg>
